<?xml version="1.0" encoding="utf-8"?>
<!-- Generator: Adobe Illustrator 22.1.0, SVG Export Plug-In . SVG Version: 6.00 Build 0)  -->
<svg version="1.1" id="Layer_1" xmlns="http://www.w3.org/2000/svg" xmlns:xlink="http://www.w3.org/1999/xlink" x="0px" y="0px"
	 viewBox="0 0 1366 768" style="enable-background:new 0 0 1366 768;" xml:space="preserve">
<style type="text/css">
	.st0{opacity:0.11;}
	.st1{fill:#B3B3D7;}
	.st2{fill:#CCCCCC;}
	.st3{opacity:0.11;fill:#B3B3D7;stroke:#CCCCCC;stroke-width:2;stroke-miterlimit:10;}
	.st4{fill:none;stroke:#CCCCCC;stroke-width:2;stroke-miterlimit:10;}
</style>
<g class="st0">
	<ellipse class="st1" cx="7.2" cy="88.4" rx="6.2" ry="5.2"/>
	<path class="st2" d="M7.2,84.2c2.9,0,5.2,1.9,5.2,4.2s-2.3,4.2-5.2,4.2S2,90.7,2,88.4S4.3,84.2,7.2,84.2 M7.2,82.2
		c-4,0-7.2,2.8-7.2,6.2c0,3.4,3.2,6.2,7.2,6.2s7.2-2.8,7.2-6.2C14.4,85,11.2,82.2,7.2,82.2L7.2,82.2z"/>
</g>
<g class="st0">
	<ellipse class="st1" cx="7.2" cy="172.6" rx="6.2" ry="5.2"/>
	<path class="st2" d="M7.2,168.3c2.9,0,5.2,1.9,5.2,4.2s-2.3,4.2-5.2,4.2S2,174.9,2,172.6S4.3,168.3,7.2,168.3 M7.2,166.3
		c-4,0-7.2,2.8-7.2,6.2c0,3.4,3.2,6.2,7.2,6.2s7.2-2.8,7.2-6.2C14.4,169.1,11.2,166.3,7.2,166.3L7.2,166.3z"/>
</g>
<g class="st0">
	<ellipse class="st1" cx="7.2" cy="256.7" rx="6.2" ry="5.2"/>
	<path class="st2" d="M7.2,252.5c2.9,0,5.2,1.9,5.2,4.2s-2.3,4.2-5.2,4.2S2,259.1,2,256.7S4.3,252.5,7.2,252.5 M7.2,250.5
		c-4,0-7.2,2.8-7.2,6.2s3.2,6.2,7.2,6.2s7.2-2.8,7.2-6.2S11.2,250.5,7.2,250.5L7.2,250.5z"/>
</g>
<g class="st0">
	<ellipse class="st1" cx="7.2" cy="339.4" rx="6.2" ry="5.2"/>
	<path class="st2" d="M7.2,335.1c2.9,0,5.2,1.9,5.2,4.2s-2.3,4.2-5.2,4.2S2,341.7,2,339.4S4.3,335.1,7.2,335.1 M7.2,333.1
		c-4,0-7.2,2.8-7.2,6.2c0,3.4,3.2,6.2,7.2,6.2s7.2-2.8,7.2-6.2C14.4,335.9,11.2,333.1,7.2,333.1L7.2,333.1z"/>
</g>
<g class="st0">
	<path class="st1" d="M7.2,430.3c-3.4,0-6.2-2.3-6.2-5.2s2.8-5.2,6.2-5.2s6.2,2.3,6.2,5.2S10.6,430.3,7.2,430.3z"/>
	<path class="st2" d="M7.2,420.9c2.9,0,5.2,1.9,5.2,4.2s-2.3,4.2-5.2,4.2S2,427.4,2,425.1S4.3,420.9,7.2,420.9 M7.2,418.9
		c-4,0-7.2,2.8-7.2,6.2s3.2,6.2,7.2,6.2s7.2-2.8,7.2-6.2S11.2,418.9,7.2,418.9L7.2,418.9z"/>
</g>
<g class="st0">
	<path class="st1" d="M7.2,514.5c-3.4,0-6.2-2.3-6.2-5.2s2.8-5.2,6.2-5.2s6.2,2.3,6.2,5.2S10.6,514.5,7.2,514.5z"/>
	<path class="st2" d="M7.2,505c2.9,0,5.2,1.9,5.2,4.2s-2.3,4.2-5.2,4.2S2,511.6,2,509.3S4.3,505,7.2,505 M7.2,503
		c-4,0-7.2,2.8-7.2,6.2c0,3.4,3.2,6.2,7.2,6.2s7.2-2.8,7.2-6.2C14.4,505.8,11.2,503,7.2,503L7.2,503z"/>
</g>
<g class="st0">
	<path class="st1" d="M7.2,598.7c-3.4,0-6.2-2.3-6.2-5.2s2.8-5.2,6.2-5.2s6.2,2.3,6.2,5.2S10.6,598.7,7.2,598.7z"/>
	<path class="st2" d="M7.2,589.2c2.9,0,5.2,1.9,5.2,4.2s-2.3,4.2-5.2,4.2S2,595.8,2,593.4S4.3,589.2,7.2,589.2 M7.2,587.2
		c-4,0-7.2,2.8-7.2,6.2c0,3.4,3.2,6.2,7.2,6.2s7.2-2.8,7.2-6.2C14.4,590,11.2,587.2,7.2,587.2L7.2,587.2z"/>
</g>
<g class="st0">
	<path class="st1" d="M7.2,682.8c-3.4,0-6.2-2.3-6.2-5.2s2.8-5.2,6.2-5.2s6.2,2.3,6.2,5.2S10.6,682.8,7.2,682.8z"/>
	<path class="st2" d="M7.2,673.4c2.9,0,5.2,1.9,5.2,4.2s-2.3,4.2-5.2,4.2S2,679.9,2,677.6S4.3,673.4,7.2,673.4 M7.2,671.4
		c-4,0-7.2,2.8-7.2,6.2c0,3.4,3.2,6.2,7.2,6.2s7.2-2.8,7.2-6.2C14.4,674.2,11.2,671.4,7.2,671.4L7.2,671.4z"/>
</g>
<g class="st0">
	<path class="st1" d="M7.2,767c-3.4,0-6.2-2.3-6.2-5.2s2.8-5.2,6.2-5.2s6.2,2.3,6.2,5.2S10.6,767,7.2,767z"/>
	<path class="st2" d="M7.2,757.5c2.9,0,5.2,1.9,5.2,4.2s-2.3,4.2-5.2,4.2S2,764.1,2,761.8S4.3,757.5,7.2,757.5 M7.2,755.5
		c-4,0-7.2,2.8-7.2,6.2c0,3.4,3.2,6.2,7.2,6.2s7.2-2.8,7.2-6.2C14.4,758.3,11.2,755.5,7.2,755.5L7.2,755.5z"/>
</g>
<g class="st0">
	<ellipse class="st1" cx="7.2" cy="4.2" rx="6.2" ry="5.2"/>
	<path class="st2" d="M7.2,0c2.9,0,5.2,1.9,5.2,4.2s-2.3,4.2-5.2,4.2S2,6.6,2,4.2S4.3,0,7.2,0 M7.2-2C3.2-2,0,0.8,0,4.2
		s3.2,6.2,7.2,6.2s7.2-2.8,7.2-6.2S11.2-2,7.2-2L7.2-2z"/>
</g>
<line class="st3" x1="7.2" y1="4.2" x2="176.1" y2="88.4"/>
<line class="st3" x1="7.2" y1="4.2" x2="176.1" y2="172.6"/>
<line class="st3" x1="176.1" y1="256.7" x2="7.2" y2="4.2"/>
<line class="st3" x1="176.1" y1="339.1" x2="7.2" y2="4.2"/>
<line class="st3" x1="176.1" y1="425.1" x2="7.2" y2="4.2"/>
<line class="st3" x1="176.1" y1="593.4" x2="7.2" y2="4.2"/>
<line class="st3" x1="176.1" y1="677.6" x2="7.2" y2="4.2"/>
<line class="st3" x1="7.2" y1="4.2" x2="176.1" y2="761.8"/>
<g class="st0">
	<line class="st4" x1="7.2" y1="4.2" x2="176.1" y2="4.2"/>
	<line class="st1" x1="7.2" y1="4.2" x2="176.1" y2="4.2"/>
</g>
<line class="st3" x1="7.2" y1="88.4" x2="176.1" y2="172.6"/>
<line class="st3" x1="7.2" y1="88.4" x2="176.1" y2="256.7"/>
<line class="st3" x1="176.1" y1="339.2" x2="7.2" y2="88.4"/>
<line class="st3" x1="176.1" y1="425.2" x2="7.2" y2="88.8"/>
<line class="st3" x1="176.1" y1="509.3" x2="7.2" y2="88.4"/>
<line class="st3" x1="176.1" y1="677.6" x2="7.2" y2="88.4"/>
<line class="st3" x1="176.1" y1="761.8" x2="7.2" y2="88.4"/>
<line class="st3" x1="7.2" y1="172.6" x2="176.1" y2="256.7"/>
<line class="st3" x1="7.2" y1="172.7" x2="176.1" y2="339.4"/>
<line class="st3" x1="176.1" y1="425.1" x2="7.2" y2="173.4"/>
<line class="st3" x1="176.1" y1="509.3" x2="7.2" y2="172.6"/>
<line class="st3" x1="176.1" y1="593.4" x2="7.2" y2="172.6"/>
<line class="st3" x1="176.1" y1="761.8" x2="7.2" y2="172.6"/>
<line class="st3" x1="7.2" y1="256.7" x2="176.1" y2="339.4"/>
<line class="st3" x1="7.2" y1="258" x2="176.1" y2="425.1"/>
<line class="st3" x1="176.1" y1="509.1" x2="7.2" y2="257.2"/>
<line class="st3" x1="176.1" y1="593.4" x2="7.2" y2="256.7"/>
<line class="st3" x1="176.1" y1="677.6" x2="7.2" y2="256.7"/>
<line class="st3" x1="7.2" y1="340.9" x2="176.1" y2="425.1"/>
<line class="st3" x1="7.2" y1="341.8" x2="176.1" y2="509.3"/>
<line class="st3" x1="176.1" y1="593.4" x2="7.2" y2="340.9"/>
<line class="st3" x1="176.1" y1="677.6" x2="7.2" y2="340.9"/>
<line class="st3" x1="176.1" y1="761.8" x2="7.2" y2="340.9"/>
<line class="st3" x1="7.2" y1="425.1" x2="176.1" y2="509.3"/>
<line class="st3" x1="7.2" y1="425.1" x2="176.1" y2="593.4"/>
<line class="st3" x1="176.1" y1="677.6" x2="7.2" y2="425.1"/>
<line class="st3" x1="176.1" y1="761.8" x2="7.2" y2="425.1"/>
<line class="st3" x1="7.2" y1="509.3" x2="176.1" y2="593.4"/>
<line class="st3" x1="7.2" y1="509.3" x2="176.1" y2="677.6"/>
<line class="st3" x1="176.1" y1="761.8" x2="7.2" y2="509.3"/>
<line class="st3" x1="7.2" y1="593.4" x2="176.1" y2="677.6"/>
<line class="st3" x1="7.2" y1="593.4" x2="176.1" y2="761.8"/>
<line class="st3" x1="7.2" y1="677.6" x2="176.1" y2="761.8"/>
<line class="st3" x1="176.1" y1="4.2" x2="7.2" y2="88.4"/>
<line class="st3" x1="176.1" y1="4.2" x2="7.2" y2="172.6"/>
<line class="st3" x1="7.2" y1="256.7" x2="176.1" y2="4.2"/>
<line class="st3" x1="7.2" y1="340.9" x2="176.1" y2="4.2"/>
<line class="st3" x1="7.2" y1="425.1" x2="176.1" y2="4.2"/>
<line class="st3" x1="7.2" y1="593.4" x2="176.1" y2="4.2"/>
<line class="st3" x1="7.2" y1="677.6" x2="176.1" y2="4.2"/>
<line class="st3" x1="176.1" y1="4.2" x2="7.2" y2="761.8"/>
<line class="st3" x1="176.1" y1="88.4" x2="7.2" y2="172.6"/>
<line class="st3" x1="176.1" y1="88.4" x2="7.2" y2="256.7"/>
<line class="st3" x1="7.2" y1="340.9" x2="176.1" y2="88.4"/>
<line class="st3" x1="7.2" y1="425.1" x2="176.1" y2="88.4"/>
<line class="st3" x1="7.2" y1="509.3" x2="176.1" y2="88.4"/>
<line class="st3" x1="7.2" y1="677.6" x2="176.1" y2="88.4"/>
<line class="st3" x1="7.2" y1="761.8" x2="176.1" y2="88.4"/>
<line class="st3" x1="176.1" y1="172.6" x2="7.2" y2="256.7"/>
<line class="st3" x1="176.1" y1="172.6" x2="7.2" y2="340.9"/>
<line class="st3" x1="7.2" y1="425.1" x2="176.1" y2="172.6"/>
<line class="st3" x1="7.2" y1="509.3" x2="176.1" y2="172.6"/>
<line class="st3" x1="7.2" y1="593.4" x2="176.1" y2="172.6"/>
<line class="st3" x1="7.2" y1="761.8" x2="176.1" y2="172.6"/>
<line class="st3" x1="176.1" y1="256.7" x2="7.2" y2="340.9"/>
<line class="st3" x1="176.1" y1="256.7" x2="7.2" y2="425.1"/>
<line class="st3" x1="7.2" y1="509.3" x2="176.1" y2="256.7"/>
<line class="st3" x1="7.2" y1="593.4" x2="176.1" y2="256.7"/>
<line class="st3" x1="7.2" y1="677.6" x2="176.1" y2="256.7"/>
<line class="st3" x1="176.1" y1="425.1" x2="7.2" y2="509.3"/>
<line class="st3" x1="176.1" y1="425.1" x2="7.2" y2="593.4"/>
<line class="st3" x1="7.2" y1="677.6" x2="176.1" y2="425.1"/>
<line class="st3" x1="7.2" y1="761.8" x2="176.1" y2="425.1"/>
<line class="st3" x1="176.1" y1="593.4" x2="7.2" y2="680.3"/>
<line class="st3" x1="176.1" y1="593.4" x2="7.2" y2="764.1"/>
<line class="st3" x1="176.1" y1="509.3" x2="7.2" y2="593.4"/>
<line class="st3" x1="176.1" y1="509.3" x2="7.2" y2="677.6"/>
<line class="st3" x1="7.2" y1="761.8" x2="176.1" y2="509.3"/>
<line class="st3" x1="176.1" y1="339.4" x2="7.2" y2="423.7"/>
<line class="st3" x1="176.1" y1="339.4" x2="7.2" y2="508"/>
<line class="st3" x1="7.2" y1="592.3" x2="176.1" y2="339.4"/>
<line class="st3" x1="7.2" y1="676.6" x2="176.1" y2="339.4"/>
<line class="st3" x1="7.2" y1="760.9" x2="176.1" y2="339.4"/>
<line class="st3" x1="176.1" y1="677.6" x2="7.2" y2="761.8"/>
<g class="st0">
	<ellipse class="st1" cx="176.1" cy="88.4" rx="6.2" ry="5.2"/>
	<path class="st2" d="M176.1,84.2c2.9,0,5.2,1.9,5.2,4.2s-2.3,4.2-5.2,4.2s-5.2-1.9-5.2-4.2S173.3,84.2,176.1,84.2 M176.1,82.2
		c-4,0-7.2,2.8-7.2,6.2c0,3.4,3.2,6.2,7.2,6.2s7.2-2.8,7.2-6.2C183.3,85,180.1,82.2,176.1,82.2L176.1,82.2z"/>
</g>
<g class="st0">
	<ellipse class="st1" cx="176.1" cy="172.6" rx="6.2" ry="5.2"/>
	<path class="st2" d="M176.1,168.3c2.9,0,5.2,1.9,5.2,4.2s-2.3,4.2-5.2,4.2s-5.2-1.9-5.2-4.2S173.3,168.3,176.1,168.3 M176.1,166.3
		c-4,0-7.2,2.8-7.2,6.2c0,3.4,3.2,6.2,7.2,6.2s7.2-2.8,7.2-6.2C183.3,169.1,180.1,166.3,176.1,166.3L176.1,166.3z"/>
</g>
<g class="st0">
	<ellipse class="st1" cx="176.1" cy="256.7" rx="6.2" ry="5.2"/>
	<path class="st2" d="M176.1,252.5c2.9,0,5.2,1.9,5.2,4.2s-2.3,4.2-5.2,4.2s-5.2-1.9-5.2-4.2S173.3,252.5,176.1,252.5 M176.1,250.5
		c-4,0-7.2,2.8-7.2,6.2s3.2,6.2,7.2,6.2s7.2-2.8,7.2-6.2S180.1,250.5,176.1,250.5L176.1,250.5z"/>
</g>
<g class="st0">
	<ellipse class="st1" cx="176.1" cy="339.4" rx="6.2" ry="5.2"/>
	<path class="st2" d="M176.1,335.1c2.9,0,5.2,1.9,5.2,4.2s-2.3,4.2-5.2,4.2s-5.2-1.9-5.2-4.2S173.3,335.1,176.1,335.1 M176.1,333.1
		c-4,0-7.2,2.8-7.2,6.2c0,3.4,3.2,6.2,7.2,6.2s7.2-2.8,7.2-6.2C183.3,335.9,180.1,333.1,176.1,333.1L176.1,333.1z"/>
</g>
<g class="st0">
	<path class="st1" d="M176.1,430.3c-3.4,0-6.2-2.3-6.2-5.2s2.8-5.2,6.2-5.2s6.2,2.3,6.2,5.2S179.6,430.3,176.1,430.3z"/>
	<path class="st2" d="M176.1,420.9c2.9,0,5.2,1.9,5.2,4.2s-2.3,4.2-5.2,4.2s-5.2-1.9-5.2-4.2S173.3,420.9,176.1,420.9 M176.1,418.9
		c-4,0-7.2,2.8-7.2,6.2s3.2,6.2,7.2,6.2s7.2-2.8,7.2-6.2S180.1,418.9,176.1,418.9L176.1,418.9z"/>
</g>
<g class="st0">
	<path class="st1" d="M176.1,514.5c-3.4,0-6.2-2.3-6.2-5.2s2.8-5.2,6.2-5.2s6.2,2.3,6.2,5.2S179.6,514.5,176.1,514.5z"/>
	<path class="st2" d="M176.1,505c2.9,0,5.2,1.9,5.2,4.2s-2.3,4.2-5.2,4.2s-5.2-1.9-5.2-4.2S173.3,505,176.1,505 M176.1,503
		c-4,0-7.2,2.8-7.2,6.2c0,3.4,3.2,6.2,7.2,6.2s7.2-2.8,7.2-6.2C183.3,505.8,180.1,503,176.1,503L176.1,503z"/>
</g>
<g class="st0">
	<path class="st1" d="M176.1,598.7c-3.4,0-6.2-2.3-6.2-5.2s2.8-5.2,6.2-5.2s6.2,2.3,6.2,5.2S179.6,598.7,176.1,598.7z"/>
	<path class="st2" d="M176.1,589.2c2.9,0,5.2,1.9,5.2,4.2s-2.3,4.2-5.2,4.2s-5.2-1.9-5.2-4.2S173.3,589.2,176.1,589.2 M176.1,587.2
		c-4,0-7.2,2.8-7.2,6.2c0,3.4,3.2,6.2,7.2,6.2s7.2-2.8,7.2-6.2C183.3,590,180.1,587.2,176.1,587.2L176.1,587.2z"/>
</g>
<g class="st0">
	<path class="st1" d="M176.1,682.8c-3.4,0-6.2-2.3-6.2-5.2s2.8-5.2,6.2-5.2s6.2,2.3,6.2,5.2S179.6,682.8,176.1,682.8z"/>
	<path class="st2" d="M176.1,673.4c2.9,0,5.2,1.9,5.2,4.2s-2.3,4.2-5.2,4.2s-5.2-1.9-5.2-4.2S173.3,673.4,176.1,673.4 M176.1,671.4
		c-4,0-7.2,2.8-7.2,6.2c0,3.4,3.2,6.2,7.2,6.2s7.2-2.8,7.2-6.2C183.3,674.2,180.1,671.4,176.1,671.4L176.1,671.4z"/>
</g>
<g class="st0">
	<path class="st1" d="M176.1,767c-3.4,0-6.2-2.3-6.2-5.2s2.8-5.2,6.2-5.2s6.2,2.3,6.2,5.2S179.6,767,176.1,767z"/>
	<path class="st2" d="M176.1,757.5c2.9,0,5.2,1.9,5.2,4.2s-2.3,4.2-5.2,4.2s-5.2-1.9-5.2-4.2S173.3,757.5,176.1,757.5 M176.1,755.5
		c-4,0-7.2,2.8-7.2,6.2c0,3.4,3.2,6.2,7.2,6.2s7.2-2.8,7.2-6.2C183.3,758.3,180.1,755.5,176.1,755.5L176.1,755.5z"/>
</g>
<g class="st0">
	<ellipse class="st1" cx="176.1" cy="4.2" rx="6.2" ry="5.2"/>
	<path class="st2" d="M176.1,0c2.9,0,5.2,1.9,5.2,4.2s-2.3,4.2-5.2,4.2S171,6.6,171,4.2S173.3,0,176.1,0 M176.1-2
		c-4,0-7.2,2.8-7.2,6.2s3.2,6.2,7.2,6.2s7.2-2.8,7.2-6.2S180.1-2,176.1-2L176.1-2z"/>
</g>
<line class="st3" x1="7.2" y1="88.4" x2="176.1" y2="88.4"/>
<line class="st3" x1="7.2" y1="172.6" x2="176.1" y2="172.6"/>
<line class="st3" x1="5.4" y1="256.7" x2="174.3" y2="256.7"/>
<line class="st3" x1="7.2" y1="339.4" x2="176.1" y2="339.4"/>
<line class="st3" x1="7.2" y1="425.1" x2="176.1" y2="425.1"/>
<line class="st3" x1="7.2" y1="509.3" x2="176.1" y2="509.3"/>
<line class="st3" x1="7.2" y1="593.4" x2="176.1" y2="593.4"/>
<line class="st3" x1="7.2" y1="677.6" x2="176.1" y2="677.6"/>
<line class="st3" x1="7.2" y1="761.8" x2="176.1" y2="761.8"/>
<line class="st3" x1="176.1" y1="4.2" x2="345.1" y2="88.4"/>
<line class="st3" x1="176.1" y1="4.2" x2="345.1" y2="172.6"/>
<line class="st3" x1="345.1" y1="256.7" x2="176.1" y2="4.2"/>
<line class="st3" x1="345.1" y1="339.1" x2="176.1" y2="4.2"/>
<line class="st3" x1="345.1" y1="425.1" x2="176.1" y2="4.2"/>
<line class="st3" x1="345.1" y1="593.4" x2="176.1" y2="4.2"/>
<line class="st3" x1="345.1" y1="677.6" x2="176.1" y2="4.2"/>
<line class="st3" x1="176.1" y1="4.2" x2="345.1" y2="761.8"/>
<g class="st0">
	<line class="st4" x1="176.1" y1="4.2" x2="345.1" y2="4.2"/>
	<line class="st1" x1="176.1" y1="4.2" x2="345.1" y2="4.2"/>
</g>
<line class="st3" x1="176.1" y1="88.4" x2="345.1" y2="172.6"/>
<line class="st3" x1="176.1" y1="88.4" x2="345.1" y2="256.7"/>
<line class="st3" x1="345.1" y1="339.2" x2="176.1" y2="88.4"/>
<line class="st3" x1="345.1" y1="425.2" x2="176.1" y2="88.8"/>
<line class="st3" x1="345.1" y1="509.3" x2="176.1" y2="88.4"/>
<line class="st3" x1="345.1" y1="677.6" x2="176.1" y2="88.4"/>
<line class="st3" x1="345.1" y1="761.8" x2="176.1" y2="88.4"/>
<line class="st3" x1="176.1" y1="172.6" x2="345.1" y2="256.7"/>
<line class="st3" x1="176.1" y1="172.7" x2="345.1" y2="339.4"/>
<line class="st3" x1="345.1" y1="425.1" x2="176.1" y2="173.4"/>
<line class="st3" x1="345.1" y1="509.3" x2="176.1" y2="172.6"/>
<line class="st3" x1="345.1" y1="593.4" x2="176.1" y2="172.6"/>
<line class="st3" x1="345.1" y1="761.8" x2="176.1" y2="172.6"/>
<line class="st3" x1="176.1" y1="256.7" x2="345.1" y2="339.4"/>
<line class="st3" x1="176.1" y1="258" x2="345.1" y2="425.1"/>
<line class="st3" x1="345.1" y1="509.1" x2="176.1" y2="257.2"/>
<line class="st3" x1="345.1" y1="593.4" x2="176.1" y2="256.7"/>
<line class="st3" x1="345.1" y1="677.6" x2="176.1" y2="256.7"/>
<line class="st3" x1="176.1" y1="340.9" x2="345.1" y2="425.1"/>
<line class="st3" x1="176.1" y1="341.8" x2="345.1" y2="509.3"/>
<line class="st3" x1="345.1" y1="593.4" x2="176.1" y2="340.9"/>
<line class="st3" x1="345.1" y1="677.6" x2="176.1" y2="340.9"/>
<line class="st3" x1="345.1" y1="761.8" x2="176.1" y2="340.9"/>
<line class="st3" x1="176.1" y1="425.1" x2="345.1" y2="509.3"/>
<line class="st3" x1="176.1" y1="425.1" x2="345.1" y2="593.4"/>
<line class="st3" x1="345.1" y1="677.6" x2="176.1" y2="425.1"/>
<line class="st3" x1="345.1" y1="761.8" x2="176.1" y2="425.1"/>
<line class="st3" x1="176.1" y1="509.3" x2="345.1" y2="593.4"/>
<line class="st3" x1="176.1" y1="509.3" x2="345.1" y2="677.6"/>
<line class="st3" x1="345.1" y1="761.8" x2="176.1" y2="509.3"/>
<line class="st3" x1="176.1" y1="593.4" x2="345.1" y2="677.6"/>
<line class="st3" x1="176.1" y1="593.4" x2="345.1" y2="761.8"/>
<line class="st3" x1="176.1" y1="677.6" x2="345.1" y2="761.8"/>
<line class="st3" x1="345.1" y1="4.2" x2="176.1" y2="88.4"/>
<line class="st3" x1="345.1" y1="4.2" x2="176.1" y2="172.6"/>
<line class="st3" x1="176.1" y1="256.7" x2="345.1" y2="4.2"/>
<line class="st3" x1="176.1" y1="340.9" x2="345.1" y2="4.2"/>
<line class="st3" x1="176.1" y1="425.1" x2="345.1" y2="4.2"/>
<line class="st3" x1="176.1" y1="593.4" x2="345.1" y2="4.2"/>
<line class="st3" x1="176.1" y1="677.6" x2="345.1" y2="4.2"/>
<line class="st3" x1="345.1" y1="4.2" x2="176.1" y2="761.8"/>
<line class="st3" x1="345.1" y1="88.4" x2="176.2" y2="172.6"/>
<line class="st3" x1="345.1" y1="88.4" x2="176.2" y2="256.7"/>
<line class="st3" x1="176.1" y1="340.9" x2="345.1" y2="88.4"/>
<line class="st3" x1="176.1" y1="425.1" x2="345.1" y2="88.4"/>
<line class="st3" x1="176.2" y1="509.3" x2="345.1" y2="88.4"/>
<line class="st3" x1="176.2" y1="677.6" x2="345.1" y2="88.4"/>
<line class="st3" x1="176.2" y1="761.8" x2="345.1" y2="88.4"/>
<line class="st3" x1="345.1" y1="172.6" x2="176.1" y2="256.7"/>
<line class="st3" x1="345.1" y1="172.6" x2="176.1" y2="340.9"/>
<line class="st3" x1="176.1" y1="425.1" x2="345.1" y2="172.6"/>
<line class="st3" x1="176.1" y1="509.3" x2="345.1" y2="172.6"/>
<line class="st3" x1="176.1" y1="593.4" x2="345.1" y2="172.6"/>
<line class="st3" x1="176.1" y1="761.8" x2="345.1" y2="172.6"/>
<line class="st3" x1="345.1" y1="256.7" x2="176.1" y2="340.9"/>
<line class="st3" x1="345.1" y1="256.7" x2="176.1" y2="425.1"/>
<line class="st3" x1="176.1" y1="509.3" x2="345.1" y2="256.7"/>
<line class="st3" x1="176.1" y1="593.4" x2="345.1" y2="256.7"/>
<line class="st3" x1="176.1" y1="677.6" x2="345.1" y2="256.7"/>
<line class="st3" x1="345.1" y1="425.1" x2="176.2" y2="509.3"/>
<line class="st3" x1="345.1" y1="425.1" x2="176.2" y2="593.4"/>
<line class="st3" x1="176.2" y1="677.6" x2="345.1" y2="425.1"/>
<line class="st3" x1="176.2" y1="761.8" x2="345.1" y2="425.1"/>
<line class="st3" x1="345.1" y1="593.4" x2="176.1" y2="680.3"/>
<line class="st3" x1="345.1" y1="593.4" x2="176.1" y2="764.1"/>
<line class="st3" x1="345.1" y1="509.3" x2="176.2" y2="593.4"/>
<line class="st3" x1="345.1" y1="509.3" x2="176.2" y2="677.6"/>
<line class="st3" x1="176.2" y1="761.8" x2="345.1" y2="509.3"/>
<line class="st3" x1="345.1" y1="339.4" x2="176.2" y2="423.7"/>
<line class="st3" x1="345.1" y1="339.4" x2="176.2" y2="508"/>
<line class="st3" x1="176.2" y1="592.3" x2="345.1" y2="339.4"/>
<line class="st3" x1="176.2" y1="676.6" x2="345.1" y2="339.4"/>
<line class="st3" x1="176.2" y1="760.9" x2="345.1" y2="339.4"/>
<line class="st3" x1="345.1" y1="677.6" x2="176.1" y2="761.8"/>
<g class="st0">
	<ellipse class="st1" cx="345.1" cy="88.4" rx="6.2" ry="5.2"/>
	<path class="st2" d="M345.1,84.2c2.9,0,5.2,1.9,5.2,4.2s-2.3,4.2-5.2,4.2s-5.2-1.9-5.2-4.2S342.2,84.2,345.1,84.2 M345.1,82.2
		c-4,0-7.2,2.8-7.2,6.2c0,3.4,3.2,6.2,7.2,6.2c4,0,7.2-2.8,7.2-6.2C352.3,85,349.1,82.2,345.1,82.2L345.1,82.2z"/>
</g>
<g class="st0">
	<ellipse class="st1" cx="345.1" cy="172.6" rx="6.2" ry="5.2"/>
	<path class="st2" d="M345.1,168.3c2.9,0,5.2,1.9,5.2,4.2s-2.3,4.2-5.2,4.2s-5.2-1.9-5.2-4.2S342.2,168.3,345.1,168.3 M345.1,166.3
		c-4,0-7.2,2.8-7.2,6.2c0,3.4,3.2,6.2,7.2,6.2c4,0,7.2-2.8,7.2-6.2C352.3,169.1,349.1,166.3,345.1,166.3L345.1,166.3z"/>
</g>
<g class="st0">
	<ellipse class="st1" cx="345.1" cy="256.7" rx="6.2" ry="5.2"/>
	<path class="st2" d="M345.1,252.5c2.9,0,5.2,1.9,5.2,4.2s-2.3,4.2-5.2,4.2s-5.2-1.9-5.2-4.2S342.2,252.5,345.1,252.5 M345.1,250.5
		c-4,0-7.2,2.8-7.2,6.2s3.2,6.2,7.2,6.2c4,0,7.2-2.8,7.2-6.2S349.1,250.5,345.1,250.5L345.1,250.5z"/>
</g>
<g class="st0">
	<ellipse class="st1" cx="345.1" cy="339.4" rx="6.2" ry="5.2"/>
	<path class="st2" d="M345.1,335.1c2.9,0,5.2,1.9,5.2,4.2s-2.3,4.2-5.2,4.2s-5.2-1.9-5.2-4.2S342.2,335.1,345.1,335.1 M345.1,333.1
		c-4,0-7.2,2.8-7.2,6.2c0,3.4,3.2,6.2,7.2,6.2c4,0,7.2-2.8,7.2-6.2C352.3,335.9,349.1,333.1,345.1,333.1L345.1,333.1z"/>
</g>
<g class="st0">
	<path class="st1" d="M345.1,430.3c-3.4,0-6.2-2.3-6.2-5.2s2.8-5.2,6.2-5.2s6.2,2.3,6.2,5.2S348.5,430.3,345.1,430.3z"/>
	<path class="st2" d="M345.1,420.9c2.9,0,5.2,1.9,5.2,4.2s-2.3,4.2-5.2,4.2s-5.2-1.9-5.2-4.2S342.2,420.9,345.1,420.9 M345.1,418.9
		c-4,0-7.2,2.8-7.2,6.2s3.2,6.2,7.2,6.2c4,0,7.2-2.8,7.2-6.2S349.1,418.9,345.1,418.9L345.1,418.9z"/>
</g>
<g class="st0">
	<path class="st1" d="M345.1,514.5c-3.4,0-6.2-2.3-6.2-5.2s2.8-5.2,6.2-5.2s6.2,2.3,6.2,5.2S348.5,514.5,345.1,514.5z"/>
	<path class="st2" d="M345.1,505c2.9,0,5.2,1.9,5.2,4.2s-2.3,4.2-5.2,4.2s-5.2-1.9-5.2-4.2S342.2,505,345.1,505 M345.1,503
		c-4,0-7.2,2.8-7.2,6.2c0,3.4,3.2,6.2,7.2,6.2c4,0,7.2-2.8,7.2-6.2C352.3,505.8,349.1,503,345.1,503L345.1,503z"/>
</g>
<g class="st0">
	<path class="st1" d="M345.1,598.7c-3.4,0-6.2-2.3-6.2-5.2s2.8-5.2,6.2-5.2s6.2,2.3,6.2,5.2S348.5,598.7,345.1,598.7z"/>
	<path class="st2" d="M345.1,589.2c2.9,0,5.2,1.9,5.2,4.2s-2.3,4.2-5.2,4.2s-5.2-1.9-5.2-4.2S342.2,589.2,345.1,589.2 M345.1,587.2
		c-4,0-7.2,2.8-7.2,6.2c0,3.4,3.2,6.2,7.2,6.2c4,0,7.2-2.8,7.2-6.2C352.3,590,349.1,587.2,345.1,587.2L345.1,587.2z"/>
</g>
<g class="st0">
	<path class="st1" d="M345.1,682.8c-3.4,0-6.2-2.3-6.2-5.2s2.8-5.2,6.2-5.2s6.2,2.3,6.2,5.2S348.5,682.8,345.1,682.8z"/>
	<path class="st2" d="M345.1,673.4c2.9,0,5.2,1.9,5.2,4.2s-2.3,4.2-5.2,4.2s-5.2-1.9-5.2-4.2S342.2,673.4,345.1,673.4 M345.1,671.4
		c-4,0-7.2,2.8-7.2,6.2c0,3.4,3.2,6.2,7.2,6.2c4,0,7.2-2.8,7.2-6.2C352.3,674.2,349.1,671.4,345.1,671.4L345.1,671.4z"/>
</g>
<g class="st0">
	<path class="st1" d="M345.1,767c-3.4,0-6.2-2.3-6.2-5.2s2.8-5.2,6.2-5.2s6.2,2.3,6.2,5.2S348.5,767,345.1,767z"/>
	<path class="st2" d="M345.1,757.5c2.9,0,5.2,1.9,5.2,4.2s-2.3,4.2-5.2,4.2s-5.2-1.9-5.2-4.2S342.2,757.5,345.1,757.5 M345.1,755.5
		c-4,0-7.2,2.8-7.2,6.2c0,3.4,3.2,6.2,7.2,6.2c4,0,7.2-2.8,7.2-6.2C352.3,758.3,349.1,755.5,345.1,755.5L345.1,755.5z"/>
</g>
<g class="st0">
	<ellipse class="st1" cx="345.1" cy="4.2" rx="6.2" ry="5.2"/>
	<path class="st2" d="M345.1,0c2.9,0,5.2,1.9,5.2,4.2s-2.3,4.2-5.2,4.2s-5.2-1.9-5.2-4.2S342.2,0,345.1,0 M345.1-2
		c-4,0-7.2,2.8-7.2,6.2s3.2,6.2,7.2,6.2c4,0,7.2-2.8,7.2-6.2S349.1-2,345.1-2L345.1-2z"/>
</g>
<line class="st3" x1="176.1" y1="88.4" x2="345.1" y2="88.4"/>
<line class="st3" x1="176.1" y1="172.6" x2="345.1" y2="172.6"/>
<line class="st3" x1="174.3" y1="256.7" x2="343.3" y2="256.7"/>
<line class="st3" x1="176.1" y1="339.4" x2="345.1" y2="339.4"/>
<line class="st3" x1="176.1" y1="425.1" x2="345.1" y2="425.1"/>
<line class="st3" x1="176.1" y1="509.3" x2="345.1" y2="509.3"/>
<line class="st3" x1="176.1" y1="593.4" x2="345.1" y2="593.4"/>
<line class="st3" x1="176.1" y1="677.6" x2="345.1" y2="677.6"/>
<line class="st3" x1="176.1" y1="761.8" x2="345.1" y2="761.8"/>
<line class="st3" x1="345.1" y1="4.2" x2="514" y2="88.4"/>
<line class="st3" x1="345.1" y1="4.2" x2="514" y2="172.6"/>
<line class="st3" x1="514" y1="256.7" x2="345.1" y2="4.2"/>
<line class="st3" x1="514" y1="339.1" x2="345.1" y2="4.2"/>
<line class="st3" x1="514" y1="425.1" x2="345.1" y2="4.2"/>
<line class="st3" x1="514" y1="593.4" x2="345.1" y2="4.2"/>
<line class="st3" x1="514" y1="677.6" x2="345.1" y2="4.2"/>
<line class="st3" x1="345.1" y1="4.2" x2="514" y2="761.8"/>
<g class="st0">
	<line class="st4" x1="345.1" y1="4.2" x2="514" y2="4.2"/>
	<line class="st1" x1="345.1" y1="4.2" x2="514" y2="4.2"/>
</g>
<line class="st3" x1="345.1" y1="88.4" x2="514" y2="172.6"/>
<line class="st3" x1="345.1" y1="88.4" x2="514" y2="256.7"/>
<line class="st3" x1="514" y1="339.2" x2="345.1" y2="88.4"/>
<line class="st3" x1="514" y1="425.2" x2="345.1" y2="88.8"/>
<line class="st3" x1="514" y1="509.3" x2="345.1" y2="88.4"/>
<line class="st3" x1="514" y1="677.6" x2="345.1" y2="88.4"/>
<line class="st3" x1="514" y1="761.8" x2="345.1" y2="88.4"/>
<line class="st3" x1="345.1" y1="172.6" x2="514" y2="256.7"/>
<line class="st3" x1="345.1" y1="172.7" x2="514" y2="339.4"/>
<line class="st3" x1="514" y1="425.1" x2="345.1" y2="173.4"/>
<line class="st3" x1="514" y1="509.3" x2="345.1" y2="172.6"/>
<line class="st3" x1="514" y1="593.4" x2="345.1" y2="172.6"/>
<line class="st3" x1="514" y1="761.8" x2="345.1" y2="172.6"/>
<line class="st3" x1="345.1" y1="256.7" x2="514" y2="339.4"/>
<line class="st3" x1="345.1" y1="258" x2="514" y2="425.1"/>
<line class="st3" x1="514" y1="509.1" x2="345.1" y2="257.2"/>
<line class="st3" x1="514" y1="593.4" x2="345.1" y2="256.7"/>
<line class="st3" x1="514" y1="677.6" x2="345.1" y2="256.7"/>
<line class="st3" x1="345.1" y1="340.9" x2="514" y2="425.1"/>
<line class="st3" x1="345.1" y1="341.8" x2="514" y2="509.3"/>
<line class="st3" x1="514" y1="593.4" x2="345.1" y2="340.9"/>
<line class="st3" x1="514" y1="677.6" x2="345.1" y2="340.9"/>
<line class="st3" x1="514" y1="761.8" x2="345.1" y2="340.9"/>
<line class="st3" x1="345.1" y1="425.1" x2="514" y2="509.3"/>
<line class="st3" x1="345.1" y1="425.1" x2="514" y2="593.4"/>
<line class="st3" x1="514" y1="677.6" x2="345.1" y2="425.1"/>
<line class="st3" x1="514" y1="761.8" x2="345.1" y2="425.1"/>
<line class="st3" x1="345.1" y1="509.3" x2="514" y2="593.4"/>
<line class="st3" x1="345.1" y1="509.3" x2="514" y2="677.6"/>
<line class="st3" x1="514" y1="761.8" x2="345.1" y2="509.3"/>
<line class="st3" x1="345.1" y1="593.4" x2="514" y2="677.6"/>
<line class="st3" x1="345.1" y1="593.4" x2="514" y2="761.8"/>
<line class="st3" x1="345.1" y1="677.6" x2="514" y2="761.8"/>
<line class="st3" x1="514" y1="4.2" x2="345.1" y2="88.4"/>
<line class="st3" x1="514" y1="4.2" x2="345.1" y2="172.6"/>
<line class="st3" x1="345.1" y1="256.7" x2="514" y2="4.2"/>
<line class="st3" x1="345.1" y1="340.9" x2="514" y2="4.2"/>
<line class="st3" x1="345.1" y1="425.1" x2="514" y2="4.2"/>
<line class="st3" x1="345.1" y1="593.4" x2="514" y2="4.2"/>
<line class="st3" x1="345.1" y1="677.6" x2="514" y2="4.2"/>
<line class="st3" x1="514" y1="4.2" x2="345.1" y2="761.8"/>
<line class="st3" x1="514" y1="88.4" x2="345.1" y2="172.6"/>
<line class="st3" x1="514" y1="88.4" x2="345.1" y2="256.7"/>
<line class="st3" x1="345.1" y1="340.9" x2="514" y2="88.4"/>
<line class="st3" x1="345.1" y1="425.1" x2="514" y2="88.4"/>
<line class="st3" x1="345.1" y1="509.3" x2="514" y2="88.4"/>
<line class="st3" x1="345.1" y1="677.6" x2="514" y2="88.4"/>
<line class="st3" x1="345.1" y1="761.8" x2="514" y2="88.4"/>
<line class="st3" x1="514" y1="172.6" x2="345.1" y2="256.7"/>
<line class="st3" x1="514" y1="172.6" x2="345.1" y2="340.9"/>
<line class="st3" x1="345.1" y1="425.1" x2="514" y2="172.6"/>
<line class="st3" x1="345.1" y1="509.3" x2="514" y2="172.6"/>
<line class="st3" x1="345.1" y1="593.4" x2="514" y2="172.6"/>
<line class="st3" x1="345.1" y1="761.8" x2="514" y2="172.6"/>
<line class="st3" x1="514" y1="256.7" x2="345.1" y2="340.9"/>
<line class="st3" x1="514" y1="256.7" x2="345.1" y2="425.1"/>
<line class="st3" x1="345.1" y1="509.3" x2="514" y2="256.7"/>
<line class="st3" x1="345.1" y1="593.4" x2="514" y2="256.7"/>
<line class="st3" x1="345.1" y1="677.6" x2="514" y2="256.7"/>
<line class="st3" x1="514" y1="425.1" x2="345.1" y2="509.3"/>
<line class="st3" x1="514" y1="425.1" x2="345.1" y2="593.4"/>
<line class="st3" x1="345.1" y1="677.6" x2="514" y2="425.1"/>
<line class="st3" x1="345.1" y1="761.8" x2="514" y2="425.1"/>
<line class="st3" x1="514" y1="593.4" x2="345.1" y2="680.3"/>
<line class="st3" x1="514" y1="593.4" x2="345.1" y2="764.1"/>
<line class="st3" x1="514" y1="509.3" x2="345.1" y2="593.4"/>
<line class="st3" x1="514" y1="509.3" x2="345.1" y2="677.6"/>
<line class="st3" x1="345.1" y1="761.8" x2="514" y2="509.3"/>
<line class="st3" x1="514" y1="339.4" x2="345.1" y2="423.7"/>
<line class="st3" x1="514" y1="339.4" x2="345.1" y2="508"/>
<line class="st3" x1="345.1" y1="592.3" x2="514" y2="339.4"/>
<line class="st3" x1="345.1" y1="676.6" x2="514" y2="339.4"/>
<line class="st3" x1="345.1" y1="760.9" x2="514" y2="339.4"/>
<line class="st3" x1="514" y1="677.6" x2="345.1" y2="761.8"/>
<g class="st0">
	<ellipse class="st1" cx="514" cy="88.4" rx="6.2" ry="5.2"/>
	<path class="st2" d="M514,84.2c2.9,0,5.2,1.9,5.2,4.2s-2.3,4.2-5.2,4.2c-2.9,0-5.2-1.9-5.2-4.2S511.2,84.2,514,84.2 M514,82.2
		c-4,0-7.2,2.8-7.2,6.2c0,3.4,3.2,6.2,7.2,6.2s7.2-2.8,7.2-6.2C521.2,85,518,82.2,514,82.2L514,82.2z"/>
</g>
<g class="st0">
	<ellipse class="st1" cx="514" cy="172.6" rx="6.2" ry="5.2"/>
	<path class="st2" d="M514,168.3c2.9,0,5.2,1.9,5.2,4.2s-2.3,4.2-5.2,4.2c-2.9,0-5.2-1.9-5.2-4.2S511.2,168.3,514,168.3 M514,166.3
		c-4,0-7.2,2.8-7.2,6.2c0,3.4,3.2,6.2,7.2,6.2s7.2-2.8,7.2-6.2C521.2,169.1,518,166.3,514,166.3L514,166.3z"/>
</g>
<g class="st0">
	<ellipse class="st1" cx="514" cy="256.7" rx="6.2" ry="5.2"/>
	<path class="st2" d="M514,252.5c2.9,0,5.2,1.9,5.2,4.2s-2.3,4.2-5.2,4.2c-2.9,0-5.2-1.9-5.2-4.2S511.2,252.5,514,252.5 M514,250.5
		c-4,0-7.2,2.8-7.2,6.2s3.2,6.2,7.2,6.2s7.2-2.8,7.2-6.2S518,250.5,514,250.5L514,250.5z"/>
</g>
<g class="st0">
	<ellipse class="st1" cx="514" cy="339.4" rx="6.2" ry="5.2"/>
	<path class="st2" d="M514,335.1c2.9,0,5.2,1.9,5.2,4.2s-2.3,4.2-5.2,4.2c-2.9,0-5.2-1.9-5.2-4.2S511.2,335.1,514,335.1 M514,333.1
		c-4,0-7.2,2.8-7.2,6.2c0,3.4,3.2,6.2,7.2,6.2s7.2-2.8,7.2-6.2C521.2,335.9,518,333.1,514,333.1L514,333.1z"/>
</g>
<g class="st0">
	<path class="st1" d="M514,430.3c-3.4,0-6.2-2.3-6.2-5.2s2.8-5.2,6.2-5.2s6.2,2.3,6.2,5.2S517.5,430.3,514,430.3z"/>
	<path class="st2" d="M514,420.9c2.9,0,5.2,1.9,5.2,4.2s-2.3,4.2-5.2,4.2c-2.9,0-5.2-1.9-5.2-4.2S511.2,420.9,514,420.9 M514,418.9
		c-4,0-7.2,2.8-7.2,6.2s3.2,6.2,7.2,6.2s7.2-2.8,7.2-6.2S518,418.9,514,418.9L514,418.9z"/>
</g>
<g class="st0">
	<path class="st1" d="M514,514.5c-3.4,0-6.2-2.3-6.2-5.2s2.8-5.2,6.2-5.2s6.2,2.3,6.2,5.2S517.5,514.5,514,514.5z"/>
	<path class="st2" d="M514,505c2.9,0,5.2,1.9,5.2,4.2s-2.3,4.2-5.2,4.2c-2.9,0-5.2-1.9-5.2-4.2S511.2,505,514,505 M514,503
		c-4,0-7.2,2.8-7.2,6.2c0,3.4,3.2,6.2,7.2,6.2s7.2-2.8,7.2-6.2C521.2,505.8,518,503,514,503L514,503z"/>
</g>
<g class="st0">
	<path class="st1" d="M514,598.7c-3.4,0-6.2-2.3-6.2-5.2s2.8-5.2,6.2-5.2s6.2,2.3,6.2,5.2S517.5,598.7,514,598.7z"/>
	<path class="st2" d="M514,589.2c2.9,0,5.2,1.9,5.2,4.2s-2.3,4.2-5.2,4.2c-2.9,0-5.2-1.9-5.2-4.2S511.2,589.2,514,589.2 M514,587.2
		c-4,0-7.2,2.8-7.2,6.2c0,3.4,3.2,6.2,7.2,6.2s7.2-2.8,7.2-6.2C521.2,590,518,587.2,514,587.2L514,587.2z"/>
</g>
<g class="st0">
	<path class="st1" d="M514,682.8c-3.4,0-6.2-2.3-6.2-5.2s2.8-5.2,6.2-5.2s6.2,2.3,6.2,5.2S517.5,682.8,514,682.8z"/>
	<path class="st2" d="M514,673.4c2.9,0,5.2,1.9,5.2,4.2s-2.3,4.2-5.2,4.2c-2.9,0-5.2-1.9-5.2-4.2S511.2,673.4,514,673.4 M514,671.4
		c-4,0-7.2,2.8-7.2,6.2c0,3.4,3.2,6.2,7.2,6.2s7.2-2.8,7.2-6.2C521.2,674.2,518,671.4,514,671.4L514,671.4z"/>
</g>
<g class="st0">
	<path class="st1" d="M514,767c-3.4,0-6.2-2.3-6.2-5.2s2.8-5.2,6.2-5.2s6.2,2.3,6.2,5.2S517.5,767,514,767z"/>
	<path class="st2" d="M514,757.5c2.9,0,5.2,1.9,5.2,4.2s-2.3,4.2-5.2,4.2c-2.9,0-5.2-1.9-5.2-4.2S511.2,757.5,514,757.5 M514,755.5
		c-4,0-7.2,2.8-7.2,6.2c0,3.4,3.2,6.2,7.2,6.2s7.2-2.8,7.2-6.2C521.2,758.3,518,755.5,514,755.5L514,755.5z"/>
</g>
<g class="st0">
	<ellipse class="st1" cx="514" cy="4.2" rx="6.2" ry="5.2"/>
	<path class="st2" d="M514,0c2.9,0,5.2,1.9,5.2,4.2s-2.3,4.2-5.2,4.2c-2.9,0-5.2-1.9-5.2-4.2S511.2,0,514,0 M514-2
		c-4,0-7.2,2.8-7.2,6.2s3.2,6.2,7.2,6.2s7.2-2.8,7.2-6.2S518-2,514-2L514-2z"/>
</g>
<line class="st3" x1="345.1" y1="88.4" x2="514" y2="88.4"/>
<line class="st3" x1="345.1" y1="172.6" x2="514" y2="172.6"/>
<line class="st3" x1="343.3" y1="256.7" x2="512.2" y2="256.7"/>
<line class="st3" x1="345.1" y1="339.4" x2="514" y2="339.4"/>
<line class="st3" x1="345.1" y1="425.1" x2="514" y2="425.1"/>
<line class="st3" x1="345.1" y1="509.3" x2="514" y2="509.3"/>
<line class="st3" x1="345.1" y1="593.4" x2="514" y2="593.4"/>
<line class="st3" x1="345.1" y1="677.6" x2="514" y2="677.6"/>
<line class="st3" x1="345.1" y1="761.8" x2="514" y2="761.8"/>
<line class="st3" x1="514" y1="4.2" x2="683" y2="88.4"/>
<line class="st3" x1="514" y1="4.2" x2="683" y2="172.6"/>
<line class="st3" x1="683" y1="256.7" x2="514" y2="4.2"/>
<line class="st3" x1="683" y1="339.1" x2="514" y2="4.2"/>
<line class="st3" x1="683" y1="425.1" x2="514" y2="4.2"/>
<line class="st3" x1="683" y1="593.4" x2="514" y2="4.2"/>
<line class="st3" x1="683" y1="677.6" x2="514" y2="4.2"/>
<line class="st3" x1="514" y1="4.2" x2="683" y2="761.8"/>
<g class="st0">
	<line class="st4" x1="514" y1="4.2" x2="683" y2="4.2"/>
	<line class="st1" x1="514" y1="4.2" x2="683" y2="4.2"/>
</g>
<line class="st3" x1="514" y1="88.4" x2="683" y2="172.6"/>
<line class="st3" x1="514" y1="88.4" x2="683" y2="256.7"/>
<line class="st3" x1="683" y1="339.2" x2="514" y2="88.4"/>
<line class="st3" x1="683" y1="425.2" x2="514" y2="88.8"/>
<line class="st3" x1="683" y1="509.3" x2="514" y2="88.4"/>
<line class="st3" x1="683" y1="677.6" x2="514" y2="88.4"/>
<line class="st3" x1="683" y1="761.8" x2="514" y2="88.4"/>
<line class="st3" x1="514" y1="172.6" x2="683" y2="256.7"/>
<line class="st3" x1="514" y1="172.7" x2="683" y2="339.4"/>
<line class="st3" x1="683" y1="425.1" x2="514" y2="173.4"/>
<line class="st3" x1="683" y1="509.3" x2="514" y2="172.6"/>
<line class="st3" x1="683" y1="593.4" x2="514" y2="172.6"/>
<line class="st3" x1="683" y1="761.8" x2="514" y2="172.6"/>
<line class="st3" x1="514" y1="256.7" x2="683" y2="339.4"/>
<line class="st3" x1="514" y1="258" x2="683" y2="425.1"/>
<line class="st3" x1="683" y1="509.1" x2="514" y2="257.2"/>
<line class="st3" x1="683" y1="593.4" x2="514" y2="256.7"/>
<line class="st3" x1="683" y1="677.6" x2="514" y2="256.7"/>
<line class="st3" x1="514" y1="340.9" x2="683" y2="425.1"/>
<line class="st3" x1="514" y1="341.8" x2="683" y2="509.3"/>
<line class="st3" x1="683" y1="593.4" x2="514" y2="340.9"/>
<line class="st3" x1="683" y1="677.6" x2="514" y2="340.9"/>
<line class="st3" x1="683" y1="761.8" x2="514" y2="340.9"/>
<line class="st3" x1="514" y1="425.1" x2="683" y2="509.3"/>
<line class="st3" x1="514" y1="425.1" x2="683" y2="593.4"/>
<line class="st3" x1="683" y1="677.6" x2="514" y2="425.1"/>
<line class="st3" x1="683" y1="761.8" x2="514" y2="425.1"/>
<line class="st3" x1="514" y1="509.3" x2="683" y2="593.4"/>
<line class="st3" x1="514" y1="509.3" x2="683" y2="677.6"/>
<line class="st3" x1="683" y1="761.8" x2="514" y2="509.3"/>
<line class="st3" x1="514" y1="593.4" x2="683" y2="677.6"/>
<line class="st3" x1="514" y1="593.4" x2="683" y2="761.8"/>
<line class="st3" x1="514" y1="677.6" x2="683" y2="761.8"/>
<line class="st3" x1="683" y1="4.2" x2="514" y2="88.4"/>
<line class="st3" x1="683" y1="4.2" x2="514" y2="172.6"/>
<line class="st3" x1="514" y1="256.7" x2="683" y2="4.2"/>
<line class="st3" x1="514" y1="340.9" x2="683" y2="4.2"/>
<line class="st3" x1="514" y1="425.1" x2="683" y2="4.2"/>
<line class="st3" x1="514" y1="593.4" x2="683" y2="4.2"/>
<line class="st3" x1="514" y1="677.6" x2="683" y2="4.2"/>
<line class="st3" x1="683" y1="4.2" x2="514" y2="761.8"/>
<line class="st3" x1="683" y1="88.4" x2="514.1" y2="172.6"/>
<line class="st3" x1="683" y1="88.4" x2="514.1" y2="256.7"/>
<line class="st3" x1="514" y1="340.9" x2="683" y2="88.4"/>
<line class="st3" x1="514" y1="425.1" x2="683" y2="88.4"/>
<line class="st3" x1="514.1" y1="509.3" x2="683" y2="88.4"/>
<line class="st3" x1="514.1" y1="677.6" x2="683" y2="88.4"/>
<line class="st3" x1="514.1" y1="761.8" x2="683" y2="88.4"/>
<line class="st3" x1="683" y1="172.6" x2="514" y2="256.7"/>
<line class="st3" x1="683" y1="172.6" x2="514" y2="340.9"/>
<line class="st3" x1="514" y1="425.1" x2="683" y2="172.6"/>
<line class="st3" x1="514" y1="509.3" x2="683" y2="172.6"/>
<line class="st3" x1="514" y1="593.4" x2="683" y2="172.6"/>
<line class="st3" x1="514" y1="761.8" x2="683" y2="172.6"/>
<line class="st3" x1="683" y1="256.7" x2="514" y2="340.9"/>
<line class="st3" x1="683" y1="256.7" x2="514" y2="425.1"/>
<line class="st3" x1="514" y1="509.3" x2="683" y2="256.7"/>
<line class="st3" x1="514" y1="593.4" x2="683" y2="256.7"/>
<line class="st3" x1="514" y1="677.6" x2="683" y2="256.7"/>
<line class="st3" x1="683" y1="425.1" x2="514.1" y2="509.3"/>
<line class="st3" x1="683" y1="425.1" x2="514.1" y2="593.4"/>
<line class="st3" x1="514.1" y1="677.6" x2="683" y2="425.1"/>
<line class="st3" x1="514.1" y1="761.8" x2="683" y2="425.1"/>
<line class="st3" x1="683" y1="593.4" x2="514" y2="680.3"/>
<line class="st3" x1="683" y1="593.4" x2="514" y2="764.1"/>
<line class="st3" x1="683" y1="509.3" x2="514.1" y2="593.4"/>
<line class="st3" x1="683" y1="509.3" x2="514.1" y2="677.6"/>
<line class="st3" x1="514.1" y1="761.8" x2="683" y2="509.3"/>
<line class="st3" x1="683" y1="339.4" x2="514.1" y2="423.7"/>
<line class="st3" x1="683" y1="339.4" x2="514.1" y2="508"/>
<line class="st3" x1="514.1" y1="592.3" x2="683" y2="339.4"/>
<line class="st3" x1="514.1" y1="676.6" x2="683" y2="339.4"/>
<line class="st3" x1="514.1" y1="760.9" x2="683" y2="339.4"/>
<line class="st3" x1="683" y1="677.6" x2="514" y2="761.8"/>
<g class="st0">
	<ellipse class="st1" cx="683" cy="88.4" rx="6.2" ry="5.2"/>
	<path class="st2" d="M683,84.2c2.9,0,5.2,1.9,5.2,4.2s-2.3,4.2-5.2,4.2s-5.2-1.9-5.2-4.2S680.1,84.2,683,84.2 M683,82.2
		c-4,0-7.2,2.8-7.2,6.2c0,3.4,3.2,6.2,7.2,6.2s7.2-2.8,7.2-6.2C690.2,85,687,82.2,683,82.2L683,82.2z"/>
</g>
<g class="st0">
	<ellipse class="st1" cx="683" cy="172.6" rx="6.2" ry="5.2"/>
	<path class="st2" d="M683,168.3c2.9,0,5.2,1.9,5.2,4.2s-2.3,4.2-5.2,4.2s-5.2-1.9-5.2-4.2S680.1,168.3,683,168.3 M683,166.3
		c-4,0-7.2,2.8-7.2,6.2c0,3.4,3.2,6.2,7.2,6.2s7.2-2.8,7.2-6.2C690.2,169.1,687,166.3,683,166.3L683,166.3z"/>
</g>
<g class="st0">
	<ellipse class="st1" cx="683" cy="256.7" rx="6.2" ry="5.2"/>
	<path class="st2" d="M683,252.5c2.9,0,5.2,1.9,5.2,4.2s-2.3,4.2-5.2,4.2s-5.2-1.9-5.2-4.2S680.1,252.5,683,252.5 M683,250.5
		c-4,0-7.2,2.8-7.2,6.2s3.2,6.2,7.2,6.2s7.2-2.8,7.2-6.2S687,250.5,683,250.5L683,250.5z"/>
</g>
<g class="st0">
	<ellipse class="st1" cx="683" cy="339.4" rx="6.2" ry="5.2"/>
	<path class="st2" d="M683,335.1c2.9,0,5.2,1.9,5.2,4.2s-2.3,4.2-5.2,4.2s-5.2-1.9-5.2-4.2S680.1,335.1,683,335.1 M683,333.1
		c-4,0-7.2,2.8-7.2,6.2c0,3.4,3.2,6.2,7.2,6.2s7.2-2.8,7.2-6.2C690.2,335.9,687,333.1,683,333.1L683,333.1z"/>
</g>
<g class="st0">
	<path class="st1" d="M683,430.3c-3.4,0-6.2-2.3-6.2-5.2s2.8-5.2,6.2-5.2s6.2,2.3,6.2,5.2S686.4,430.3,683,430.3z"/>
	<path class="st2" d="M683,420.9c2.9,0,5.2,1.9,5.2,4.2s-2.3,4.2-5.2,4.2s-5.2-1.9-5.2-4.2S680.1,420.9,683,420.9 M683,418.9
		c-4,0-7.2,2.8-7.2,6.2s3.2,6.2,7.2,6.2s7.2-2.8,7.2-6.2S687,418.9,683,418.9L683,418.9z"/>
</g>
<g class="st0">
	<path class="st1" d="M683,514.5c-3.4,0-6.2-2.3-6.2-5.2s2.8-5.2,6.2-5.2s6.2,2.3,6.2,5.2S686.4,514.5,683,514.5z"/>
	<path class="st2" d="M683,505c2.9,0,5.2,1.9,5.2,4.2s-2.3,4.2-5.2,4.2s-5.2-1.9-5.2-4.2S680.1,505,683,505 M683,503
		c-4,0-7.2,2.8-7.2,6.2c0,3.4,3.2,6.2,7.2,6.2s7.2-2.8,7.2-6.2C690.2,505.8,687,503,683,503L683,503z"/>
</g>
<g class="st0">
	<path class="st1" d="M683,598.7c-3.4,0-6.2-2.3-6.2-5.2s2.8-5.2,6.2-5.2s6.2,2.3,6.2,5.2S686.4,598.7,683,598.7z"/>
	<path class="st2" d="M683,589.2c2.9,0,5.2,1.9,5.2,4.2s-2.3,4.2-5.2,4.2s-5.2-1.9-5.2-4.2S680.1,589.2,683,589.2 M683,587.2
		c-4,0-7.2,2.8-7.2,6.2c0,3.4,3.2,6.2,7.2,6.2s7.2-2.8,7.2-6.2C690.2,590,687,587.2,683,587.2L683,587.2z"/>
</g>
<g class="st0">
	<path class="st1" d="M683,682.8c-3.4,0-6.2-2.3-6.2-5.2s2.8-5.2,6.2-5.2s6.2,2.3,6.2,5.2S686.4,682.8,683,682.8z"/>
	<path class="st2" d="M683,673.4c2.9,0,5.2,1.9,5.2,4.2s-2.3,4.2-5.2,4.2s-5.2-1.9-5.2-4.2S680.1,673.4,683,673.4 M683,671.4
		c-4,0-7.2,2.8-7.2,6.2c0,3.4,3.2,6.2,7.2,6.2s7.2-2.8,7.2-6.2C690.2,674.2,687,671.4,683,671.4L683,671.4z"/>
</g>
<g class="st0">
	<path class="st1" d="M683,767c-3.4,0-6.2-2.3-6.2-5.2s2.8-5.2,6.2-5.2s6.2,2.3,6.2,5.2S686.4,767,683,767z"/>
	<path class="st2" d="M683,757.5c2.9,0,5.2,1.9,5.2,4.2s-2.3,4.2-5.2,4.2s-5.2-1.9-5.2-4.2S680.1,757.5,683,757.5 M683,755.5
		c-4,0-7.2,2.8-7.2,6.2c0,3.4,3.2,6.2,7.2,6.2s7.2-2.8,7.2-6.2C690.2,758.3,687,755.5,683,755.5L683,755.5z"/>
</g>
<g class="st0">
	<ellipse class="st1" cx="683" cy="4.2" rx="6.2" ry="5.2"/>
	<path class="st2" d="M683,0c2.9,0,5.2,1.9,5.2,4.2s-2.3,4.2-5.2,4.2s-5.2-1.9-5.2-4.2S680.1,0,683,0 M683-2c-4,0-7.2,2.8-7.2,6.2
		s3.2,6.2,7.2,6.2s7.2-2.8,7.2-6.2S687-2,683-2L683-2z"/>
</g>
<line class="st3" x1="514" y1="88.4" x2="683" y2="88.4"/>
<line class="st3" x1="514" y1="172.6" x2="683" y2="172.6"/>
<line class="st3" x1="512.2" y1="256.7" x2="681.2" y2="256.7"/>
<line class="st3" x1="514" y1="339.4" x2="683" y2="339.4"/>
<line class="st3" x1="514" y1="425.1" x2="683" y2="425.1"/>
<line class="st3" x1="514" y1="509.3" x2="683" y2="509.3"/>
<line class="st3" x1="514" y1="593.4" x2="683" y2="593.4"/>
<line class="st3" x1="514" y1="677.6" x2="683" y2="677.6"/>
<line class="st3" x1="514" y1="761.8" x2="683" y2="761.8"/>
<line class="st3" x1="683" y1="4.2" x2="852" y2="88.4"/>
<line class="st3" x1="683" y1="4.2" x2="852" y2="172.6"/>
<line class="st3" x1="852" y1="256.7" x2="683" y2="4.2"/>
<line class="st3" x1="852" y1="339.1" x2="683" y2="4.2"/>
<line class="st3" x1="852" y1="425.1" x2="683" y2="4.2"/>
<line class="st3" x1="852" y1="593.4" x2="683" y2="4.2"/>
<line class="st3" x1="852" y1="677.6" x2="683" y2="4.2"/>
<line class="st3" x1="683" y1="4.2" x2="852" y2="761.8"/>
<g class="st0">
	<line class="st4" x1="683" y1="4.2" x2="852" y2="4.2"/>
	<line class="st1" x1="683" y1="4.2" x2="852" y2="4.2"/>
</g>
<line class="st3" x1="683" y1="88.4" x2="852" y2="172.6"/>
<line class="st3" x1="683" y1="88.4" x2="852" y2="256.7"/>
<line class="st3" x1="852" y1="339.2" x2="683" y2="88.4"/>
<line class="st3" x1="852" y1="425.2" x2="683" y2="88.8"/>
<line class="st3" x1="852" y1="509.3" x2="683" y2="88.4"/>
<line class="st3" x1="852" y1="677.6" x2="683" y2="88.4"/>
<line class="st3" x1="852" y1="761.8" x2="683" y2="88.4"/>
<line class="st3" x1="683" y1="172.6" x2="852" y2="256.7"/>
<line class="st3" x1="683" y1="172.7" x2="852" y2="339.4"/>
<line class="st3" x1="852" y1="425.1" x2="683" y2="173.4"/>
<line class="st3" x1="852" y1="509.3" x2="683" y2="172.6"/>
<line class="st3" x1="852" y1="593.4" x2="683" y2="172.6"/>
<line class="st3" x1="852" y1="761.8" x2="683" y2="172.6"/>
<line class="st3" x1="683" y1="256.7" x2="852" y2="339.4"/>
<line class="st3" x1="683" y1="258" x2="852" y2="425.1"/>
<line class="st3" x1="852" y1="509.1" x2="683" y2="257.2"/>
<line class="st3" x1="852" y1="593.4" x2="683" y2="256.7"/>
<line class="st3" x1="852" y1="677.6" x2="683" y2="256.7"/>
<line class="st3" x1="683" y1="340.9" x2="852" y2="425.1"/>
<line class="st3" x1="683" y1="341.8" x2="852" y2="509.3"/>
<line class="st3" x1="852" y1="593.4" x2="683" y2="340.9"/>
<line class="st3" x1="852" y1="677.6" x2="683" y2="340.9"/>
<line class="st3" x1="852" y1="761.8" x2="683" y2="340.9"/>
<line class="st3" x1="683" y1="425.1" x2="852" y2="509.3"/>
<line class="st3" x1="683" y1="425.1" x2="852" y2="593.4"/>
<line class="st3" x1="852" y1="677.6" x2="683" y2="425.1"/>
<line class="st3" x1="852" y1="761.8" x2="683" y2="425.1"/>
<line class="st3" x1="683" y1="509.3" x2="852" y2="593.4"/>
<line class="st3" x1="683" y1="509.3" x2="852" y2="677.6"/>
<line class="st3" x1="852" y1="761.8" x2="683" y2="509.3"/>
<line class="st3" x1="683" y1="593.4" x2="852" y2="677.6"/>
<line class="st3" x1="683" y1="593.4" x2="852" y2="761.8"/>
<line class="st3" x1="683" y1="677.6" x2="852" y2="761.8"/>
<line class="st3" x1="852" y1="4.2" x2="683" y2="88.4"/>
<line class="st3" x1="852" y1="4.2" x2="683" y2="172.6"/>
<line class="st3" x1="683" y1="256.7" x2="852" y2="4.2"/>
<line class="st3" x1="683" y1="340.9" x2="852" y2="4.2"/>
<line class="st3" x1="683" y1="425.1" x2="852" y2="4.2"/>
<line class="st3" x1="683" y1="593.4" x2="852" y2="4.2"/>
<line class="st3" x1="683" y1="677.6" x2="852" y2="4.2"/>
<line class="st3" x1="852" y1="4.2" x2="683" y2="761.8"/>
<line class="st3" x1="852" y1="88.4" x2="683" y2="172.6"/>
<line class="st3" x1="852" y1="88.4" x2="683" y2="256.7"/>
<line class="st3" x1="683" y1="340.9" x2="852" y2="88.4"/>
<line class="st3" x1="683" y1="425.1" x2="852" y2="88.4"/>
<line class="st3" x1="683" y1="509.3" x2="852" y2="88.4"/>
<line class="st3" x1="683" y1="677.6" x2="852" y2="88.4"/>
<line class="st3" x1="683" y1="761.8" x2="852" y2="88.4"/>
<line class="st3" x1="852" y1="172.6" x2="683" y2="256.7"/>
<line class="st3" x1="852" y1="172.6" x2="683" y2="340.9"/>
<line class="st3" x1="683" y1="425.1" x2="852" y2="172.6"/>
<line class="st3" x1="683" y1="509.3" x2="852" y2="172.6"/>
<line class="st3" x1="683" y1="593.4" x2="852" y2="172.6"/>
<line class="st3" x1="683" y1="761.8" x2="852" y2="172.6"/>
<line class="st3" x1="852" y1="256.7" x2="683" y2="340.9"/>
<line class="st3" x1="852" y1="256.7" x2="683" y2="425.1"/>
<line class="st3" x1="683" y1="509.3" x2="852" y2="256.7"/>
<line class="st3" x1="683" y1="715" x2="852" y2="378.3"/>
<line class="st3" x1="683" y1="677.6" x2="852" y2="256.7"/>
<line class="st3" x1="852" y1="425.1" x2="683" y2="509.3"/>
<line class="st3" x1="852" y1="425.1" x2="683" y2="593.4"/>
<line class="st3" x1="683" y1="677.6" x2="852" y2="425.1"/>
<line class="st3" x1="683" y1="761.8" x2="852" y2="425.1"/>
<line class="st3" x1="852" y1="593.4" x2="683" y2="680.3"/>
<line class="st3" x1="852" y1="593.4" x2="683" y2="764.1"/>
<line class="st3" x1="852" y1="509.3" x2="683" y2="593.4"/>
<line class="st3" x1="852" y1="509.3" x2="683" y2="677.6"/>
<line class="st3" x1="683" y1="761.8" x2="852" y2="509.3"/>
<line class="st3" x1="852" y1="339.4" x2="683" y2="423.7"/>
<line class="st3" x1="852" y1="339.4" x2="683" y2="508"/>
<line class="st3" x1="683" y1="592.3" x2="852" y2="339.4"/>
<line class="st3" x1="683" y1="676.6" x2="852" y2="339.4"/>
<line class="st3" x1="683" y1="760.9" x2="852" y2="339.4"/>
<line class="st3" x1="852" y1="677.6" x2="683" y2="761.8"/>
<g class="st0">
	<path class="st1" d="M852,93.6c-3.4,0-6.2-2.3-6.2-5.2s2.8-5.2,6.2-5.2s6.2,2.3,6.2,5.2S855.4,93.6,852,93.6z"/>
	<path class="st2" d="M852,84.2c2.9,0,5.2,1.9,5.2,4.2s-2.3,4.2-5.2,4.2s-5.2-1.9-5.2-4.2S849.1,84.2,852,84.2 M852,82.2
		c-4,0-7.2,2.8-7.2,6.2c0,3.4,3.2,6.2,7.2,6.2s7.2-2.8,7.2-6.2C859.1,85,855.9,82.2,852,82.2L852,82.2z"/>
</g>
<g class="st0">
	<path class="st1" d="M852,177.8c-3.4,0-6.2-2.3-6.2-5.2s2.8-5.2,6.2-5.2s6.2,2.3,6.2,5.2S855.4,177.8,852,177.8z"/>
	<path class="st2" d="M852,168.3c2.9,0,5.2,1.9,5.2,4.2s-2.3,4.2-5.2,4.2s-5.2-1.9-5.2-4.2S849.1,168.3,852,168.3 M852,166.3
		c-4,0-7.2,2.8-7.2,6.2c0,3.4,3.2,6.2,7.2,6.2s7.2-2.8,7.2-6.2C859.1,169.1,855.9,166.3,852,166.3L852,166.3z"/>
</g>
<g class="st0">
	<path class="st1" d="M852,262c-3.4,0-6.2-2.3-6.2-5.2s2.8-5.2,6.2-5.2s6.2,2.3,6.2,5.2S855.4,262,852,262z"/>
	<path class="st2" d="M852,252.5c2.9,0,5.2,1.9,5.2,4.2s-2.3,4.2-5.2,4.2s-5.2-1.9-5.2-4.2S849.1,252.5,852,252.5 M852,250.5
		c-4,0-7.2,2.8-7.2,6.2s3.2,6.2,7.2,6.2s7.2-2.8,7.2-6.2S855.9,250.5,852,250.5L852,250.5z"/>
</g>
<g class="st0">
	<path class="st1" d="M852,344.6c-3.4,0-6.2-2.3-6.2-5.2s2.8-5.2,6.2-5.2s6.2,2.3,6.2,5.2S855.4,344.6,852,344.6z"/>
	<path class="st2" d="M852,335.1c2.9,0,5.2,1.9,5.2,4.2s-2.3,4.2-5.2,4.2s-5.2-1.9-5.2-4.2S849.1,335.1,852,335.1 M852,333.1
		c-4,0-7.2,2.8-7.2,6.2c0,3.4,3.2,6.2,7.2,6.2s7.2-2.8,7.2-6.2C859.1,335.9,855.9,333.1,852,333.1L852,333.1z"/>
</g>
<g class="st0">
	<path class="st1" d="M852,430.3c-3.4,0-6.2-2.3-6.2-5.2s2.8-5.2,6.2-5.2s6.2,2.3,6.2,5.2S855.4,430.3,852,430.3z"/>
	<path class="st2" d="M852,420.9c2.9,0,5.2,1.9,5.2,4.2s-2.3,4.2-5.2,4.2s-5.2-1.9-5.2-4.2S849.1,420.9,852,420.9 M852,418.9
		c-4,0-7.2,2.8-7.2,6.2s3.2,6.2,7.2,6.2s7.2-2.8,7.2-6.2S855.9,418.9,852,418.9L852,418.9z"/>
</g>
<g class="st0">
	<path class="st1" d="M852,514.5c-3.4,0-6.2-2.3-6.2-5.2s2.8-5.2,6.2-5.2s6.2,2.3,6.2,5.2S855.4,514.5,852,514.5z"/>
	<path class="st2" d="M852,505c2.9,0,5.2,1.9,5.2,4.2s-2.3,4.2-5.2,4.2s-5.2-1.9-5.2-4.2S849.1,505,852,505 M852,503
		c-4,0-7.2,2.8-7.2,6.2c0,3.4,3.2,6.2,7.2,6.2s7.2-2.8,7.2-6.2C859.1,505.8,855.9,503,852,503L852,503z"/>
</g>
<g class="st0">
	<path class="st1" d="M852,598.7c-3.4,0-6.2-2.3-6.2-5.2s2.8-5.2,6.2-5.2s6.2,2.3,6.2,5.2S855.4,598.7,852,598.7z"/>
	<path class="st2" d="M852,589.2c2.9,0,5.2,1.9,5.2,4.2s-2.3,4.2-5.2,4.2s-5.2-1.9-5.2-4.2S849.1,589.2,852,589.2 M852,587.2
		c-4,0-7.2,2.8-7.2,6.2c0,3.4,3.2,6.2,7.2,6.2s7.2-2.8,7.2-6.2C859.1,590,855.9,587.2,852,587.2L852,587.2z"/>
</g>
<g class="st0">
	<path class="st1" d="M852,682.8c-3.4,0-6.2-2.3-6.2-5.2s2.8-5.2,6.2-5.2s6.2,2.3,6.2,5.2S855.4,682.8,852,682.8z"/>
	<path class="st2" d="M852,673.4c2.9,0,5.2,1.9,5.2,4.2s-2.3,4.2-5.2,4.2s-5.2-1.9-5.2-4.2S849.1,673.4,852,673.4 M852,671.4
		c-4,0-7.2,2.8-7.2,6.2c0,3.4,3.2,6.2,7.2,6.2s7.2-2.8,7.2-6.2C859.1,674.2,855.9,671.4,852,671.4L852,671.4z"/>
</g>
<g class="st0">
	<path class="st1" d="M852,767c-3.4,0-6.2-2.3-6.2-5.2s2.8-5.2,6.2-5.2s6.2,2.3,6.2,5.2S855.4,767,852,767z"/>
	<path class="st2" d="M852,757.5c2.9,0,5.2,1.9,5.2,4.2s-2.3,4.2-5.2,4.2s-5.2-1.9-5.2-4.2S849.1,757.5,852,757.5 M852,755.5
		c-4,0-7.2,2.8-7.2,6.2c0,3.4,3.2,6.2,7.2,6.2s7.2-2.8,7.2-6.2C859.1,758.3,855.9,755.5,852,755.5L852,755.5z"/>
</g>
<g class="st0">
	<path class="st1" d="M852,9.5c-3.4,0-6.2-2.3-6.2-5.2S848.5-1,852-1s6.2,2.3,6.2,5.2S855.4,9.5,852,9.5z"/>
	<path class="st2" d="M852,0c2.9,0,5.2,1.9,5.2,4.2s-2.3,4.2-5.2,4.2s-5.2-1.9-5.2-4.2S849.1,0,852,0 M852-2c-4,0-7.2,2.8-7.2,6.2
		s3.2,6.2,7.2,6.2s7.2-2.8,7.2-6.2S855.9-2,852-2L852-2z"/>
</g>
<line class="st3" x1="683" y1="88.4" x2="852" y2="88.4"/>
<line class="st3" x1="683" y1="172.6" x2="852" y2="172.6"/>
<line class="st3" x1="681.2" y1="256.7" x2="850.2" y2="256.7"/>
<line class="st3" x1="683" y1="339.4" x2="852" y2="339.4"/>
<line class="st3" x1="683" y1="425.1" x2="852" y2="425.1"/>
<line class="st3" x1="683" y1="509.3" x2="852" y2="509.3"/>
<line class="st3" x1="683" y1="593.4" x2="852" y2="593.4"/>
<line class="st3" x1="683" y1="677.6" x2="852" y2="677.6"/>
<line class="st3" x1="683" y1="761.8" x2="852" y2="761.8"/>
<line class="st3" x1="852" y1="4.2" x2="1020.9" y2="88.4"/>
<line class="st3" x1="852" y1="4.2" x2="1020.9" y2="172.6"/>
<line class="st3" x1="1020.9" y1="256.7" x2="852" y2="4.2"/>
<line class="st3" x1="1020.9" y1="339.1" x2="852" y2="4.2"/>
<line class="st3" x1="1020.9" y1="425.1" x2="852" y2="4.2"/>
<line class="st3" x1="1020.9" y1="593.4" x2="852" y2="4.2"/>
<line class="st3" x1="1020.9" y1="677.6" x2="852" y2="4.2"/>
<line class="st3" x1="852" y1="4.2" x2="1020.9" y2="761.8"/>
<g class="st0">
	<line class="st4" x1="852" y1="4.2" x2="1020.9" y2="4.2"/>
	<line class="st1" x1="852" y1="4.2" x2="1020.9" y2="4.2"/>
</g>
<line class="st3" x1="852" y1="88.4" x2="1020.9" y2="172.6"/>
<line class="st3" x1="852" y1="88.4" x2="1020.9" y2="256.7"/>
<line class="st3" x1="1020.9" y1="339.2" x2="852" y2="88.4"/>
<line class="st3" x1="1020.9" y1="425.2" x2="852" y2="88.8"/>
<line class="st3" x1="1020.9" y1="509.3" x2="852" y2="88.4"/>
<line class="st3" x1="1020.9" y1="677.6" x2="852" y2="88.4"/>
<line class="st3" x1="1020.9" y1="761.8" x2="852" y2="88.4"/>
<line class="st3" x1="852" y1="172.6" x2="1020.9" y2="256.7"/>
<line class="st3" x1="852" y1="172.7" x2="1020.9" y2="339.4"/>
<line class="st3" x1="1020.9" y1="425.1" x2="852" y2="173.4"/>
<line class="st3" x1="1020.9" y1="509.3" x2="852" y2="172.6"/>
<line class="st3" x1="1020.9" y1="593.4" x2="852" y2="172.6"/>
<line class="st3" x1="1020.9" y1="761.8" x2="852" y2="172.6"/>
<line class="st3" x1="852" y1="256.7" x2="1020.9" y2="339.4"/>
<line class="st3" x1="852" y1="258" x2="1020.9" y2="425.1"/>
<line class="st3" x1="1020.9" y1="509.1" x2="852" y2="257.2"/>
<line class="st3" x1="1020.9" y1="593.4" x2="852" y2="256.7"/>
<line class="st3" x1="1020.9" y1="677.6" x2="852" y2="256.7"/>
<line class="st3" x1="852" y1="340.9" x2="1020.9" y2="425.1"/>
<line class="st3" x1="852" y1="341.8" x2="1020.9" y2="509.3"/>
<line class="st3" x1="1020.9" y1="593.4" x2="852" y2="340.9"/>
<line class="st3" x1="1020.9" y1="677.6" x2="852" y2="340.9"/>
<line class="st3" x1="1020.9" y1="761.8" x2="852" y2="340.9"/>
<line class="st3" x1="852" y1="425.1" x2="1020.9" y2="509.3"/>
<line class="st3" x1="852" y1="425.1" x2="1020.9" y2="593.4"/>
<line class="st3" x1="1020.9" y1="677.6" x2="852" y2="425.1"/>
<line class="st3" x1="1020.9" y1="761.8" x2="852" y2="425.1"/>
<line class="st3" x1="852" y1="509.3" x2="1020.9" y2="593.4"/>
<line class="st3" x1="852" y1="509.3" x2="1020.9" y2="677.6"/>
<line class="st3" x1="1020.9" y1="761.8" x2="852" y2="509.3"/>
<line class="st3" x1="852" y1="593.4" x2="1020.9" y2="677.6"/>
<line class="st3" x1="852" y1="593.4" x2="1020.9" y2="761.8"/>
<line class="st3" x1="852" y1="677.6" x2="1020.9" y2="761.8"/>
<line class="st3" x1="1020.9" y1="4.2" x2="852" y2="88.4"/>
<line class="st3" x1="1020.9" y1="4.2" x2="852" y2="172.6"/>
<line class="st3" x1="852" y1="256.7" x2="1020.9" y2="4.2"/>
<line class="st3" x1="852" y1="340.9" x2="1020.9" y2="4.2"/>
<line class="st3" x1="852" y1="425.1" x2="1020.9" y2="4.2"/>
<line class="st3" x1="852" y1="593.4" x2="1020.9" y2="4.2"/>
<line class="st3" x1="852" y1="677.6" x2="1020.9" y2="4.2"/>
<line class="st3" x1="1020.9" y1="4.2" x2="852" y2="761.8"/>
<line class="st3" x1="1020.9" y1="88.4" x2="852" y2="172.6"/>
<line class="st3" x1="1020.9" y1="88.4" x2="852" y2="256.7"/>
<line class="st3" x1="852" y1="340.9" x2="1020.9" y2="88.4"/>
<line class="st3" x1="852" y1="425.1" x2="1020.9" y2="88.4"/>
<line class="st3" x1="852" y1="509.3" x2="1020.9" y2="88.4"/>
<line class="st3" x1="852" y1="677.6" x2="1020.9" y2="88.4"/>
<line class="st3" x1="852" y1="761.8" x2="1020.9" y2="88.4"/>
<line class="st3" x1="1020.9" y1="172.6" x2="852" y2="256.7"/>
<line class="st3" x1="1020.9" y1="172.6" x2="852" y2="340.9"/>
<line class="st3" x1="852" y1="425.1" x2="1020.9" y2="172.6"/>
<line class="st3" x1="852" y1="509.3" x2="1020.9" y2="172.6"/>
<line class="st3" x1="852" y1="593.4" x2="1020.9" y2="172.6"/>
<line class="st3" x1="852" y1="761.8" x2="1020.9" y2="172.6"/>
<line class="st3" x1="1020.9" y1="256.7" x2="852" y2="340.9"/>
<line class="st3" x1="1020.9" y1="256.7" x2="852" y2="425.1"/>
<line class="st3" x1="852" y1="509.3" x2="1020.9" y2="256.7"/>
<line class="st3" x1="852" y1="593.4" x2="1020.9" y2="256.7"/>
<line class="st3" x1="852" y1="677.6" x2="1020.9" y2="256.7"/>
<line class="st3" x1="1020.9" y1="425.1" x2="852" y2="509.3"/>
<line class="st3" x1="1020.9" y1="425.1" x2="852" y2="593.4"/>
<line class="st3" x1="852" y1="677.6" x2="1020.9" y2="425.1"/>
<line class="st3" x1="852" y1="761.8" x2="1020.9" y2="425.1"/>
<line class="st3" x1="1020.9" y1="593.4" x2="852" y2="680.3"/>
<line class="st3" x1="1020.9" y1="593.4" x2="852" y2="764.1"/>
<line class="st3" x1="1020.9" y1="509.3" x2="852" y2="593.4"/>
<line class="st3" x1="1020.9" y1="509.3" x2="852" y2="677.6"/>
<line class="st3" x1="852" y1="761.8" x2="1020.9" y2="509.3"/>
<line class="st3" x1="1020.9" y1="339.4" x2="852" y2="423.7"/>
<line class="st3" x1="1020.9" y1="339.4" x2="852" y2="508"/>
<line class="st3" x1="852" y1="592.3" x2="1020.9" y2="339.4"/>
<line class="st3" x1="852" y1="676.6" x2="1020.9" y2="339.4"/>
<line class="st3" x1="852" y1="760.9" x2="1020.9" y2="339.4"/>
<line class="st3" x1="1020.9" y1="677.6" x2="852" y2="761.8"/>
<g class="st0">
	<ellipse class="st1" cx="1020.9" cy="88.4" rx="6.2" ry="5.2"/>
	<path class="st2" d="M1020.9,84.2c2.9,0,5.2,1.9,5.2,4.2s-2.3,4.2-5.2,4.2c-2.9,0-5.2-1.9-5.2-4.2S1018,84.2,1020.9,84.2
		 M1020.9,82.2c-4,0-7.2,2.8-7.2,6.2c0,3.4,3.2,6.2,7.2,6.2c4,0,7.2-2.8,7.2-6.2C1028.1,85,1024.9,82.2,1020.9,82.2L1020.9,82.2z"/>
</g>
<g class="st0">
	<ellipse class="st1" cx="1020.9" cy="172.6" rx="6.2" ry="5.2"/>
	<path class="st2" d="M1020.9,168.3c2.9,0,5.2,1.9,5.2,4.2s-2.3,4.2-5.2,4.2c-2.9,0-5.2-1.9-5.2-4.2S1018,168.3,1020.9,168.3
		 M1020.9,166.3c-4,0-7.2,2.8-7.2,6.2c0,3.4,3.2,6.2,7.2,6.2c4,0,7.2-2.8,7.2-6.2C1028.1,169.1,1024.9,166.3,1020.9,166.3
		L1020.9,166.3z"/>
</g>
<g class="st0">
	<ellipse class="st1" cx="1020.9" cy="256.7" rx="6.2" ry="5.2"/>
	<path class="st2" d="M1020.9,252.5c2.9,0,5.2,1.9,5.2,4.2s-2.3,4.2-5.2,4.2c-2.9,0-5.2-1.9-5.2-4.2S1018,252.5,1020.9,252.5
		 M1020.9,250.5c-4,0-7.2,2.8-7.2,6.2s3.2,6.2,7.2,6.2c4,0,7.2-2.8,7.2-6.2S1024.9,250.5,1020.9,250.5L1020.9,250.5z"/>
</g>
<g class="st0">
	<ellipse class="st1" cx="1020.9" cy="339.4" rx="6.2" ry="5.2"/>
	<path class="st2" d="M1020.9,335.1c2.9,0,5.2,1.9,5.2,4.2s-2.3,4.2-5.2,4.2c-2.9,0-5.2-1.9-5.2-4.2S1018,335.1,1020.9,335.1
		 M1020.9,333.1c-4,0-7.2,2.8-7.2,6.2c0,3.4,3.2,6.2,7.2,6.2c4,0,7.2-2.8,7.2-6.2C1028.1,335.9,1024.9,333.1,1020.9,333.1
		L1020.9,333.1z"/>
</g>
<g class="st0">
	<path class="st1" d="M1020.9,430.3c-3.4,0-6.2-2.3-6.2-5.2s2.8-5.2,6.2-5.2s6.2,2.3,6.2,5.2S1024.3,430.3,1020.9,430.3z"/>
	<path class="st2" d="M1020.9,420.9c2.9,0,5.2,1.9,5.2,4.2s-2.3,4.2-5.2,4.2c-2.9,0-5.2-1.9-5.2-4.2S1018,420.9,1020.9,420.9
		 M1020.9,418.9c-4,0-7.2,2.8-7.2,6.2s3.2,6.2,7.2,6.2c4,0,7.2-2.8,7.2-6.2S1024.9,418.9,1020.9,418.9L1020.9,418.9z"/>
</g>
<g class="st0">
	<path class="st1" d="M1020.9,514.5c-3.4,0-6.2-2.3-6.2-5.2s2.8-5.2,6.2-5.2s6.2,2.3,6.2,5.2S1024.3,514.5,1020.9,514.5z"/>
	<path class="st2" d="M1020.9,505c2.9,0,5.2,1.9,5.2,4.2s-2.3,4.2-5.2,4.2c-2.9,0-5.2-1.9-5.2-4.2S1018,505,1020.9,505 M1020.9,503
		c-4,0-7.2,2.8-7.2,6.2c0,3.4,3.2,6.2,7.2,6.2c4,0,7.2-2.8,7.2-6.2C1028.1,505.8,1024.9,503,1020.9,503L1020.9,503z"/>
</g>
<g class="st0">
	<path class="st1" d="M1020.9,598.7c-3.4,0-6.2-2.3-6.2-5.2s2.8-5.2,6.2-5.2s6.2,2.3,6.2,5.2S1024.3,598.7,1020.9,598.7z"/>
	<path class="st2" d="M1020.9,589.2c2.9,0,5.2,1.9,5.2,4.2s-2.3,4.2-5.2,4.2c-2.9,0-5.2-1.9-5.2-4.2S1018,589.2,1020.9,589.2
		 M1020.9,587.2c-4,0-7.2,2.8-7.2,6.2c0,3.4,3.2,6.2,7.2,6.2c4,0,7.2-2.8,7.2-6.2C1028.1,590,1024.9,587.2,1020.9,587.2
		L1020.9,587.2z"/>
</g>
<g class="st0">
	<path class="st1" d="M1020.9,682.8c-3.4,0-6.2-2.3-6.2-5.2s2.8-5.2,6.2-5.2s6.2,2.3,6.2,5.2S1024.3,682.8,1020.9,682.8z"/>
	<path class="st2" d="M1020.9,673.4c2.9,0,5.2,1.9,5.2,4.2s-2.3,4.2-5.2,4.2c-2.9,0-5.2-1.9-5.2-4.2S1018,673.4,1020.9,673.4
		 M1020.9,671.4c-4,0-7.2,2.8-7.2,6.2c0,3.4,3.2,6.2,7.2,6.2c4,0,7.2-2.8,7.2-6.2C1028.1,674.2,1024.9,671.4,1020.9,671.4
		L1020.9,671.4z"/>
</g>
<g class="st0">
	<path class="st1" d="M1020.9,767c-3.4,0-6.2-2.3-6.2-5.2s2.8-5.2,6.2-5.2s6.2,2.3,6.2,5.2S1024.3,767,1020.9,767z"/>
	<path class="st2" d="M1020.9,757.5c2.9,0,5.2,1.9,5.2,4.2s-2.3,4.2-5.2,4.2c-2.9,0-5.2-1.9-5.2-4.2S1018,757.5,1020.9,757.5
		 M1020.9,755.5c-4,0-7.2,2.8-7.2,6.2c0,3.4,3.2,6.2,7.2,6.2c4,0,7.2-2.8,7.2-6.2C1028.1,758.3,1024.9,755.5,1020.9,755.5
		L1020.9,755.5z"/>
</g>
<g class="st0">
	<ellipse class="st1" cx="1020.9" cy="4.2" rx="6.2" ry="5.2"/>
	<path class="st2" d="M1020.9,0c2.9,0,5.2,1.9,5.2,4.2s-2.3,4.2-5.2,4.2c-2.9,0-5.2-1.9-5.2-4.2S1018,0,1020.9,0 M1020.9-2
		c-4,0-7.2,2.8-7.2,6.2s3.2,6.2,7.2,6.2c4,0,7.2-2.8,7.2-6.2S1024.9-2,1020.9-2L1020.9-2z"/>
</g>
<line class="st3" x1="852" y1="88.4" x2="1020.9" y2="88.4"/>
<line class="st3" x1="852" y1="172.6" x2="1020.9" y2="172.6"/>
<line class="st3" x1="850.2" y1="256.7" x2="1019.1" y2="256.7"/>
<line class="st3" x1="852" y1="339.4" x2="1020.9" y2="339.4"/>
<line class="st3" x1="852" y1="425.1" x2="1020.9" y2="425.1"/>
<line class="st3" x1="852" y1="509.3" x2="1020.9" y2="509.3"/>
<line class="st3" x1="852" y1="593.4" x2="1020.9" y2="593.4"/>
<line class="st3" x1="852" y1="677.6" x2="1020.9" y2="677.6"/>
<line class="st3" x1="852" y1="761.8" x2="1020.9" y2="761.8"/>
<line class="st3" x1="1020.9" y1="4.2" x2="1189.9" y2="88.4"/>
<line class="st3" x1="1020.9" y1="4.2" x2="1189.9" y2="172.6"/>
<line class="st3" x1="1189.9" y1="256.7" x2="1020.9" y2="4.2"/>
<line class="st3" x1="1189.9" y1="339.1" x2="1020.9" y2="4.2"/>
<line class="st3" x1="1189.9" y1="425.1" x2="1020.9" y2="4.2"/>
<line class="st3" x1="1189.9" y1="593.4" x2="1020.9" y2="4.2"/>
<line class="st3" x1="1189.9" y1="677.6" x2="1020.9" y2="4.2"/>
<line class="st3" x1="1020.9" y1="4.2" x2="1189.9" y2="761.8"/>
<g class="st0">
	<line class="st4" x1="1020.9" y1="4.2" x2="1189.9" y2="4.2"/>
	<line class="st1" x1="1020.9" y1="4.2" x2="1189.9" y2="4.2"/>
</g>
<line class="st3" x1="1020.9" y1="88.4" x2="1189.9" y2="172.6"/>
<line class="st3" x1="1020.9" y1="88.4" x2="1189.9" y2="256.7"/>
<line class="st3" x1="1189.9" y1="339.2" x2="1020.9" y2="88.4"/>
<line class="st3" x1="1189.9" y1="425.2" x2="1020.9" y2="88.8"/>
<line class="st3" x1="1189.9" y1="509.3" x2="1020.9" y2="88.4"/>
<line class="st3" x1="1189.9" y1="677.6" x2="1020.9" y2="88.4"/>
<line class="st3" x1="1189.9" y1="761.8" x2="1020.9" y2="88.4"/>
<line class="st3" x1="1020.9" y1="172.6" x2="1189.9" y2="256.7"/>
<line class="st3" x1="1020.9" y1="172.7" x2="1189.9" y2="339.4"/>
<line class="st3" x1="1189.9" y1="425.1" x2="1020.9" y2="173.4"/>
<line class="st3" x1="1189.9" y1="509.3" x2="1020.9" y2="172.6"/>
<line class="st3" x1="1189.9" y1="593.4" x2="1020.9" y2="172.6"/>
<line class="st3" x1="1189.9" y1="761.8" x2="1020.9" y2="172.6"/>
<line class="st3" x1="1020.9" y1="256.7" x2="1189.9" y2="339.4"/>
<line class="st3" x1="1020.9" y1="258" x2="1189.9" y2="425.1"/>
<line class="st3" x1="1189.9" y1="509.1" x2="1020.9" y2="257.2"/>
<line class="st3" x1="1189.9" y1="593.4" x2="1020.9" y2="256.7"/>
<line class="st3" x1="1189.9" y1="677.6" x2="1020.9" y2="256.7"/>
<line class="st3" x1="1020.9" y1="340.9" x2="1189.9" y2="425.1"/>
<line class="st3" x1="1020.9" y1="341.8" x2="1189.9" y2="509.3"/>
<line class="st3" x1="1189.9" y1="593.4" x2="1020.9" y2="340.9"/>
<line class="st3" x1="1189.9" y1="677.6" x2="1020.9" y2="340.9"/>
<line class="st3" x1="1189.9" y1="761.8" x2="1020.9" y2="340.9"/>
<line class="st3" x1="1020.9" y1="425.1" x2="1189.9" y2="509.3"/>
<line class="st3" x1="1020.9" y1="425.1" x2="1189.9" y2="593.4"/>
<line class="st3" x1="1189.9" y1="677.6" x2="1020.9" y2="425.1"/>
<line class="st3" x1="1189.9" y1="761.8" x2="1020.9" y2="425.1"/>
<line class="st3" x1="1020.9" y1="509.3" x2="1189.9" y2="593.4"/>
<line class="st3" x1="1020.9" y1="509.3" x2="1189.9" y2="677.6"/>
<line class="st3" x1="1189.9" y1="761.8" x2="1020.9" y2="509.3"/>
<line class="st3" x1="1020.9" y1="593.4" x2="1189.9" y2="677.6"/>
<line class="st3" x1="1020.9" y1="593.4" x2="1189.9" y2="761.8"/>
<line class="st3" x1="1020.9" y1="677.6" x2="1189.9" y2="761.8"/>
<line class="st3" x1="1189.9" y1="4.2" x2="1020.9" y2="88.4"/>
<line class="st3" x1="1189.9" y1="4.2" x2="1020.9" y2="172.6"/>
<line class="st3" x1="1020.9" y1="256.7" x2="1189.9" y2="4.2"/>
<line class="st3" x1="1020.9" y1="340.9" x2="1189.9" y2="4.2"/>
<line class="st3" x1="1020.9" y1="425.1" x2="1189.9" y2="4.2"/>
<line class="st3" x1="1020.9" y1="593.4" x2="1189.9" y2="4.2"/>
<line class="st3" x1="1020.9" y1="677.6" x2="1189.9" y2="4.2"/>
<line class="st3" x1="1189.9" y1="4.2" x2="1020.9" y2="761.8"/>
<line class="st3" x1="1189.9" y1="88.4" x2="1020.9" y2="172.6"/>
<line class="st3" x1="1189.9" y1="88.4" x2="1020.9" y2="256.7"/>
<line class="st3" x1="1020.9" y1="340.9" x2="1189.9" y2="88.4"/>
<line class="st3" x1="1020.9" y1="425.1" x2="1189.9" y2="88.4"/>
<line class="st3" x1="1020.9" y1="509.3" x2="1189.9" y2="88.4"/>
<line class="st3" x1="1020.9" y1="677.6" x2="1189.9" y2="88.4"/>
<line class="st3" x1="1020.9" y1="761.8" x2="1189.9" y2="88.4"/>
<line class="st3" x1="1189.9" y1="172.6" x2="1020.9" y2="256.7"/>
<line class="st3" x1="1189.9" y1="172.6" x2="1020.9" y2="340.9"/>
<line class="st3" x1="1020.9" y1="425.1" x2="1189.9" y2="172.6"/>
<line class="st3" x1="1020.9" y1="509.3" x2="1189.9" y2="172.6"/>
<line class="st3" x1="1020.9" y1="593.4" x2="1189.9" y2="172.6"/>
<line class="st3" x1="1020.9" y1="761.8" x2="1189.9" y2="172.6"/>
<line class="st3" x1="1189.9" y1="256.7" x2="1020.9" y2="340.9"/>
<line class="st3" x1="1189.9" y1="256.7" x2="1020.9" y2="425.1"/>
<line class="st3" x1="1020.9" y1="509.3" x2="1189.9" y2="256.7"/>
<line class="st3" x1="1020.9" y1="593.4" x2="1189.9" y2="256.7"/>
<line class="st3" x1="1020.9" y1="677.6" x2="1189.9" y2="256.7"/>
<line class="st3" x1="1189.9" y1="425.1" x2="1020.9" y2="509.3"/>
<line class="st3" x1="1189.9" y1="425.1" x2="1020.9" y2="593.4"/>
<line class="st3" x1="1020.9" y1="677.6" x2="1189.9" y2="425.1"/>
<line class="st3" x1="1020.9" y1="761.8" x2="1189.9" y2="425.1"/>
<line class="st3" x1="1189.9" y1="593.4" x2="1020.9" y2="680.3"/>
<line class="st3" x1="1189.9" y1="593.4" x2="1020.9" y2="764.1"/>
<line class="st3" x1="1189.9" y1="509.3" x2="1020.9" y2="593.4"/>
<line class="st3" x1="1189.9" y1="509.3" x2="1020.9" y2="677.6"/>
<line class="st3" x1="1020.9" y1="761.8" x2="1189.9" y2="509.3"/>
<line class="st3" x1="1189.9" y1="339.4" x2="1020.9" y2="423.7"/>
<line class="st3" x1="1189.9" y1="339.4" x2="1020.9" y2="508"/>
<line class="st3" x1="1020.9" y1="592.3" x2="1189.9" y2="339.4"/>
<line class="st3" x1="1020.9" y1="676.6" x2="1189.9" y2="339.4"/>
<line class="st3" x1="1020.9" y1="760.9" x2="1189.9" y2="339.4"/>
<line class="st3" x1="1189.9" y1="677.6" x2="1020.9" y2="761.8"/>
<g class="st0">
	<path class="st1" d="M1189.9,93.6c-3.4,0-6.2-2.3-6.2-5.2s2.8-5.2,6.2-5.2s6.2,2.3,6.2,5.2S1193.3,93.6,1189.9,93.6z"/>
	<path class="st2" d="M1189.9,84.2c2.9,0,5.2,1.9,5.2,4.2s-2.3,4.2-5.2,4.2s-5.2-1.9-5.2-4.2S1187,84.2,1189.9,84.2 M1189.9,82.2
		c-4,0-7.2,2.8-7.2,6.2c0,3.4,3.2,6.2,7.2,6.2c4,0,7.2-2.8,7.2-6.2C1197,85,1193.8,82.2,1189.9,82.2L1189.9,82.2z"/>
</g>
<g class="st0">
	<path class="st1" d="M1189.9,177.8c-3.4,0-6.2-2.3-6.2-5.2s2.8-5.2,6.2-5.2s6.2,2.3,6.2,5.2S1193.3,177.8,1189.9,177.8z"/>
	<path class="st2" d="M1189.9,168.3c2.9,0,5.2,1.9,5.2,4.2s-2.3,4.2-5.2,4.2s-5.2-1.9-5.2-4.2S1187,168.3,1189.9,168.3
		 M1189.9,166.3c-4,0-7.2,2.8-7.2,6.2c0,3.4,3.2,6.2,7.2,6.2c4,0,7.2-2.8,7.2-6.2C1197,169.1,1193.8,166.3,1189.9,166.3
		L1189.9,166.3z"/>
</g>
<g class="st0">
	<path class="st1" d="M1189.9,262c-3.4,0-6.2-2.3-6.2-5.2s2.8-5.2,6.2-5.2s6.2,2.3,6.2,5.2S1193.3,262,1189.9,262z"/>
	<path class="st2" d="M1189.9,252.5c2.9,0,5.2,1.9,5.2,4.2s-2.3,4.2-5.2,4.2s-5.2-1.9-5.2-4.2S1187,252.5,1189.9,252.5
		 M1189.9,250.5c-4,0-7.2,2.8-7.2,6.2s3.2,6.2,7.2,6.2c4,0,7.2-2.8,7.2-6.2S1193.8,250.5,1189.9,250.5L1189.9,250.5z"/>
</g>
<g class="st0">
	<path class="st1" d="M1189.9,344.6c-3.4,0-6.2-2.3-6.2-5.2s2.8-5.2,6.2-5.2s6.2,2.3,6.2,5.2S1193.3,344.6,1189.9,344.6z"/>
	<path class="st2" d="M1189.9,335.1c2.9,0,5.2,1.9,5.2,4.2s-2.3,4.2-5.2,4.2s-5.2-1.9-5.2-4.2S1187,335.1,1189.9,335.1
		 M1189.9,333.1c-4,0-7.2,2.8-7.2,6.2c0,3.4,3.2,6.2,7.2,6.2c4,0,7.2-2.8,7.2-6.2C1197,335.9,1193.8,333.1,1189.9,333.1
		L1189.9,333.1z"/>
</g>
<g class="st0">
	<path class="st1" d="M1189.9,430.3c-3.4,0-6.2-2.3-6.2-5.2s2.8-5.2,6.2-5.2s6.2,2.3,6.2,5.2S1193.3,430.3,1189.9,430.3z"/>
	<path class="st2" d="M1189.9,420.9c2.9,0,5.2,1.9,5.2,4.2s-2.3,4.2-5.2,4.2s-5.2-1.9-5.2-4.2S1187,420.9,1189.9,420.9
		 M1189.9,418.9c-4,0-7.2,2.8-7.2,6.2s3.2,6.2,7.2,6.2c4,0,7.2-2.8,7.2-6.2S1193.8,418.9,1189.9,418.9L1189.9,418.9z"/>
</g>
<g class="st0">
	<path class="st1" d="M1189.9,514.5c-3.4,0-6.2-2.3-6.2-5.2s2.8-5.2,6.2-5.2s6.2,2.3,6.2,5.2S1193.3,514.5,1189.9,514.5z"/>
	<path class="st2" d="M1189.9,505c2.9,0,5.2,1.9,5.2,4.2s-2.3,4.2-5.2,4.2s-5.2-1.9-5.2-4.2S1187,505,1189.9,505 M1189.9,503
		c-4,0-7.2,2.8-7.2,6.2c0,3.4,3.2,6.2,7.2,6.2c4,0,7.2-2.8,7.2-6.2C1197,505.8,1193.8,503,1189.9,503L1189.9,503z"/>
</g>
<g class="st0">
	<path class="st1" d="M1189.9,598.7c-3.4,0-6.2-2.3-6.2-5.2s2.8-5.2,6.2-5.2s6.2,2.3,6.2,5.2S1193.3,598.7,1189.9,598.7z"/>
	<path class="st2" d="M1189.9,589.2c2.9,0,5.2,1.9,5.2,4.2s-2.3,4.2-5.2,4.2s-5.2-1.9-5.2-4.2S1187,589.2,1189.9,589.2
		 M1189.9,587.2c-4,0-7.2,2.8-7.2,6.2c0,3.4,3.2,6.2,7.2,6.2c4,0,7.2-2.8,7.2-6.2C1197,590,1193.8,587.2,1189.9,587.2L1189.9,587.2z
		"/>
</g>
<g class="st0">
	<path class="st1" d="M1189.9,682.8c-3.4,0-6.2-2.3-6.2-5.2s2.8-5.2,6.2-5.2s6.2,2.3,6.2,5.2S1193.3,682.8,1189.9,682.8z"/>
	<path class="st2" d="M1189.9,673.4c2.9,0,5.2,1.9,5.2,4.2s-2.3,4.2-5.2,4.2s-5.2-1.9-5.2-4.2S1187,673.4,1189.9,673.4
		 M1189.9,671.4c-4,0-7.2,2.8-7.2,6.2c0,3.4,3.2,6.2,7.2,6.2c4,0,7.2-2.8,7.2-6.2C1197,674.2,1193.8,671.4,1189.9,671.4
		L1189.9,671.4z"/>
</g>
<g class="st0">
	<path class="st1" d="M1189.9,767c-3.4,0-6.2-2.3-6.2-5.2s2.8-5.2,6.2-5.2s6.2,2.3,6.2,5.2S1193.3,767,1189.9,767z"/>
	<path class="st2" d="M1189.9,757.5c2.9,0,5.2,1.9,5.2,4.2s-2.3,4.2-5.2,4.2s-5.2-1.9-5.2-4.2S1187,757.5,1189.9,757.5
		 M1189.9,755.5c-4,0-7.2,2.8-7.2,6.2c0,3.4,3.2,6.2,7.2,6.2c4,0,7.2-2.8,7.2-6.2C1197,758.3,1193.8,755.5,1189.9,755.5
		L1189.9,755.5z"/>
</g>
<g class="st0">
	<path class="st1" d="M1189.9,9.5c-3.4,0-6.2-2.3-6.2-5.2s2.8-5.2,6.2-5.2s6.2,2.3,6.2,5.2S1193.3,9.5,1189.9,9.5z"/>
	<path class="st2" d="M1189.9,0c2.9,0,5.2,1.9,5.2,4.2s-2.3,4.2-5.2,4.2s-5.2-1.9-5.2-4.2S1187,0,1189.9,0 M1189.9-2
		c-4,0-7.2,2.8-7.2,6.2s3.2,6.2,7.2,6.2c4,0,7.2-2.8,7.2-6.2S1193.8-2,1189.9-2L1189.9-2z"/>
</g>
<line class="st3" x1="1020.9" y1="88.4" x2="1189.9" y2="88.4"/>
<line class="st3" x1="1020.9" y1="172.6" x2="1189.9" y2="172.6"/>
<line class="st3" x1="1019.1" y1="256.7" x2="1188.1" y2="256.7"/>
<line class="st3" x1="1020.9" y1="339.4" x2="1189.9" y2="339.4"/>
<line class="st3" x1="1020.9" y1="425.1" x2="1189.9" y2="425.1"/>
<line class="st3" x1="1020.9" y1="509.3" x2="1189.9" y2="509.3"/>
<line class="st3" x1="1020.9" y1="593.4" x2="1189.9" y2="593.4"/>
<line class="st3" x1="1020.9" y1="677.6" x2="1189.9" y2="677.6"/>
<line class="st3" x1="1020.9" y1="761.8" x2="1189.9" y2="761.8"/>
<line class="st3" x1="1189.9" y1="4.2" x2="1358.8" y2="88.4"/>
<line class="st3" x1="1189.9" y1="4.2" x2="1358.8" y2="172.6"/>
<line class="st3" x1="1358.8" y1="256.7" x2="1189.9" y2="4.2"/>
<line class="st3" x1="1358.8" y1="339.1" x2="1189.9" y2="4.2"/>
<line class="st3" x1="1358.8" y1="425.1" x2="1189.9" y2="4.2"/>
<line class="st3" x1="1358.8" y1="593.4" x2="1189.9" y2="4.2"/>
<line class="st3" x1="1358.8" y1="677.6" x2="1189.9" y2="4.2"/>
<line class="st3" x1="1189.9" y1="4.2" x2="1358.8" y2="761.8"/>
<g class="st0">
	<line class="st4" x1="1189.9" y1="4.2" x2="1358.8" y2="4.2"/>
	<line class="st1" x1="1189.9" y1="4.2" x2="1358.8" y2="4.2"/>
</g>
<line class="st3" x1="1189.9" y1="88.4" x2="1358.8" y2="172.6"/>
<line class="st3" x1="1189.9" y1="88.4" x2="1358.8" y2="256.7"/>
<line class="st3" x1="1358.8" y1="339.2" x2="1189.9" y2="88.4"/>
<line class="st3" x1="1358.8" y1="425.2" x2="1189.9" y2="88.8"/>
<line class="st3" x1="1358.8" y1="509.3" x2="1189.9" y2="88.4"/>
<line class="st3" x1="1358.8" y1="677.6" x2="1189.9" y2="88.4"/>
<line class="st3" x1="1358.8" y1="761.8" x2="1189.9" y2="88.4"/>
<line class="st3" x1="1189.9" y1="172.6" x2="1358.8" y2="256.7"/>
<line class="st3" x1="1189.9" y1="172.7" x2="1358.8" y2="339.4"/>
<line class="st3" x1="1358.8" y1="425.1" x2="1189.9" y2="173.4"/>
<line class="st3" x1="1358.8" y1="509.3" x2="1189.9" y2="172.6"/>
<line class="st3" x1="1358.8" y1="593.4" x2="1189.9" y2="172.6"/>
<line class="st3" x1="1358.8" y1="761.8" x2="1189.9" y2="172.6"/>
<line class="st3" x1="1189.9" y1="256.7" x2="1358.8" y2="339.4"/>
<line class="st3" x1="1189.9" y1="258" x2="1358.8" y2="425.1"/>
<line class="st3" x1="1358.8" y1="509.1" x2="1189.9" y2="257.2"/>
<line class="st3" x1="1358.8" y1="593.4" x2="1189.9" y2="256.7"/>
<line class="st3" x1="1358.8" y1="677.6" x2="1189.9" y2="256.7"/>
<line class="st3" x1="1189.9" y1="340.9" x2="1358.8" y2="425.1"/>
<line class="st3" x1="1189.9" y1="341.8" x2="1358.8" y2="509.3"/>
<line class="st3" x1="1358.8" y1="593.4" x2="1189.9" y2="340.9"/>
<line class="st3" x1="1358.8" y1="677.6" x2="1189.9" y2="340.9"/>
<line class="st3" x1="1358.8" y1="761.8" x2="1189.9" y2="340.9"/>
<line class="st3" x1="1189.9" y1="425.1" x2="1358.8" y2="509.3"/>
<line class="st3" x1="1189.9" y1="425.1" x2="1358.8" y2="593.4"/>
<line class="st3" x1="1358.8" y1="677.6" x2="1189.9" y2="425.1"/>
<line class="st3" x1="1358.8" y1="761.8" x2="1189.9" y2="425.1"/>
<line class="st3" x1="1189.9" y1="509.3" x2="1358.8" y2="593.4"/>
<line class="st3" x1="1189.9" y1="509.3" x2="1358.8" y2="677.6"/>
<line class="st3" x1="1358.8" y1="761.8" x2="1189.9" y2="509.3"/>
<line class="st3" x1="1189.9" y1="593.4" x2="1358.8" y2="677.6"/>
<line class="st3" x1="1189.9" y1="593.4" x2="1358.8" y2="761.8"/>
<line class="st3" x1="1189.9" y1="677.6" x2="1358.8" y2="761.8"/>
<line class="st3" x1="1358.8" y1="4.2" x2="1189.9" y2="88.4"/>
<line class="st3" x1="1358.8" y1="4.2" x2="1189.9" y2="172.6"/>
<line class="st3" x1="1189.9" y1="256.7" x2="1358.8" y2="4.2"/>
<line class="st3" x1="1189.9" y1="340.9" x2="1358.8" y2="4.2"/>
<line class="st3" x1="1189.9" y1="425.1" x2="1358.8" y2="4.2"/>
<line class="st3" x1="1189.9" y1="593.4" x2="1358.8" y2="4.2"/>
<line class="st3" x1="1189.9" y1="677.6" x2="1358.8" y2="4.2"/>
<line class="st3" x1="1358.8" y1="4.2" x2="1189.9" y2="761.8"/>
<line class="st3" x1="1358.8" y1="88.4" x2="1189.9" y2="172.6"/>
<line class="st3" x1="1358.8" y1="88.4" x2="1189.9" y2="256.7"/>
<line class="st3" x1="1189.9" y1="340.9" x2="1358.8" y2="88.4"/>
<line class="st3" x1="1189.9" y1="425.1" x2="1358.8" y2="88.4"/>
<line class="st3" x1="1189.9" y1="509.3" x2="1358.8" y2="88.4"/>
<line class="st3" x1="1189.9" y1="677.6" x2="1358.8" y2="88.4"/>
<line class="st3" x1="1189.9" y1="761.8" x2="1358.8" y2="88.4"/>
<line class="st3" x1="1358.8" y1="172.6" x2="1189.9" y2="256.7"/>
<line class="st3" x1="1358.8" y1="172.6" x2="1189.9" y2="340.9"/>
<line class="st3" x1="1189.9" y1="425.1" x2="1358.8" y2="172.6"/>
<line class="st3" x1="1189.9" y1="509.3" x2="1358.8" y2="172.6"/>
<line class="st3" x1="1189.9" y1="593.4" x2="1358.8" y2="172.6"/>
<line class="st3" x1="1189.9" y1="761.8" x2="1358.8" y2="172.6"/>
<line class="st3" x1="1358.8" y1="256.7" x2="1189.9" y2="340.9"/>
<line class="st3" x1="1358.8" y1="256.7" x2="1189.9" y2="425.1"/>
<line class="st3" x1="1189.9" y1="509.3" x2="1358.8" y2="256.7"/>
<line class="st3" x1="1189.9" y1="593.4" x2="1358.8" y2="256.7"/>
<line class="st3" x1="1189.9" y1="677.6" x2="1358.8" y2="256.7"/>
<line class="st3" x1="1358.8" y1="425.1" x2="1189.9" y2="509.3"/>
<line class="st3" x1="1358.8" y1="425.1" x2="1189.9" y2="593.4"/>
<line class="st3" x1="1189.9" y1="677.6" x2="1358.8" y2="425.1"/>
<line class="st3" x1="1189.9" y1="761.8" x2="1358.8" y2="425.1"/>
<line class="st3" x1="1358.8" y1="593.4" x2="1189.9" y2="680.3"/>
<line class="st3" x1="1358.8" y1="593.4" x2="1189.9" y2="764.1"/>
<line class="st3" x1="1358.8" y1="509.3" x2="1189.9" y2="593.4"/>
<line class="st3" x1="1358.8" y1="509.3" x2="1189.9" y2="677.6"/>
<line class="st3" x1="1189.9" y1="761.8" x2="1358.8" y2="509.3"/>
<line class="st3" x1="1358.8" y1="339.4" x2="1189.9" y2="423.7"/>
<line class="st3" x1="1358.8" y1="339.4" x2="1189.9" y2="508"/>
<line class="st3" x1="1189.9" y1="592.3" x2="1358.8" y2="339.4"/>
<line class="st3" x1="1189.9" y1="676.6" x2="1358.8" y2="339.4"/>
<line class="st3" x1="1189.9" y1="760.9" x2="1358.8" y2="339.4"/>
<line class="st3" x1="1358.8" y1="677.6" x2="1189.9" y2="761.8"/>
<g class="st0">
	<ellipse class="st1" cx="1358.8" cy="88.4" rx="6.2" ry="5.2"/>
	<path class="st2" d="M1358.8,84.2c2.9,0,5.2,1.9,5.2,4.2s-2.3,4.2-5.2,4.2s-5.2-1.9-5.2-4.2S1355.9,84.2,1358.8,84.2 M1358.8,82.2
		c-4,0-7.2,2.8-7.2,6.2c0,3.4,3.2,6.2,7.2,6.2c4,0,7.2-2.8,7.2-6.2C1366,85,1362.8,82.2,1358.8,82.2L1358.8,82.2z"/>
</g>
<g class="st0">
	<ellipse class="st1" cx="1358.8" cy="172.6" rx="6.2" ry="5.2"/>
	<path class="st2" d="M1358.8,168.3c2.9,0,5.2,1.9,5.2,4.2s-2.3,4.2-5.2,4.2s-5.2-1.9-5.2-4.2S1355.9,168.3,1358.8,168.3
		 M1358.8,166.3c-4,0-7.2,2.8-7.2,6.2c0,3.4,3.2,6.2,7.2,6.2c4,0,7.2-2.8,7.2-6.2C1366,169.1,1362.8,166.3,1358.8,166.3
		L1358.8,166.3z"/>
</g>
<g class="st0">
	<ellipse class="st1" cx="1358.8" cy="256.7" rx="6.2" ry="5.2"/>
	<path class="st2" d="M1358.8,252.5c2.9,0,5.2,1.9,5.2,4.2s-2.3,4.2-5.2,4.2s-5.2-1.9-5.2-4.2S1355.9,252.5,1358.8,252.5
		 M1358.8,250.5c-4,0-7.2,2.8-7.2,6.2s3.2,6.2,7.2,6.2c4,0,7.2-2.8,7.2-6.2S1362.8,250.5,1358.8,250.5L1358.8,250.5z"/>
</g>
<g class="st0">
	<ellipse class="st1" cx="1358.8" cy="339.4" rx="6.2" ry="5.2"/>
	<path class="st2" d="M1358.8,335.1c2.9,0,5.2,1.9,5.2,4.2s-2.3,4.2-5.2,4.2s-5.2-1.9-5.2-4.2S1355.9,335.1,1358.8,335.1
		 M1358.8,333.1c-4,0-7.2,2.8-7.2,6.2c0,3.4,3.2,6.2,7.2,6.2c4,0,7.2-2.8,7.2-6.2C1366,335.9,1362.8,333.1,1358.8,333.1
		L1358.8,333.1z"/>
</g>
<g class="st0">
	<path class="st1" d="M1358.8,430.3c-3.4,0-6.2-2.3-6.2-5.2s2.8-5.2,6.2-5.2s6.2,2.3,6.2,5.2S1362.2,430.3,1358.8,430.3z"/>
	<path class="st2" d="M1358.8,420.9c2.9,0,5.2,1.9,5.2,4.2s-2.3,4.2-5.2,4.2s-5.2-1.9-5.2-4.2S1355.9,420.9,1358.8,420.9
		 M1358.8,418.9c-4,0-7.2,2.8-7.2,6.2s3.2,6.2,7.2,6.2c4,0,7.2-2.8,7.2-6.2S1362.8,418.9,1358.8,418.9L1358.8,418.9z"/>
</g>
<g class="st0">
	<path class="st1" d="M1358.8,514.5c-3.4,0-6.2-2.3-6.2-5.2s2.8-5.2,6.2-5.2s6.2,2.3,6.2,5.2S1362.2,514.5,1358.8,514.5z"/>
	<path class="st2" d="M1358.8,505c2.9,0,5.2,1.9,5.2,4.2s-2.3,4.2-5.2,4.2s-5.2-1.9-5.2-4.2S1355.9,505,1358.8,505 M1358.8,503
		c-4,0-7.2,2.8-7.2,6.2c0,3.4,3.2,6.2,7.2,6.2c4,0,7.2-2.8,7.2-6.2C1366,505.8,1362.8,503,1358.8,503L1358.8,503z"/>
</g>
<g class="st0">
	<path class="st1" d="M1358.8,598.7c-3.4,0-6.2-2.3-6.2-5.2s2.8-5.2,6.2-5.2s6.2,2.3,6.2,5.2S1362.2,598.7,1358.8,598.7z"/>
	<path class="st2" d="M1358.8,589.2c2.9,0,5.2,1.9,5.2,4.2s-2.3,4.2-5.2,4.2s-5.2-1.9-5.2-4.2S1355.9,589.2,1358.8,589.2
		 M1358.8,587.2c-4,0-7.2,2.8-7.2,6.2c0,3.4,3.2,6.2,7.2,6.2c4,0,7.2-2.8,7.2-6.2C1366,590,1362.8,587.2,1358.8,587.2L1358.8,587.2z
		"/>
</g>
<g class="st0">
	<path class="st1" d="M1358.8,682.8c-3.4,0-6.2-2.3-6.2-5.2s2.8-5.2,6.2-5.2s6.2,2.3,6.2,5.2S1362.2,682.8,1358.8,682.8z"/>
	<path class="st2" d="M1358.8,673.4c2.9,0,5.2,1.9,5.2,4.2s-2.3,4.2-5.2,4.2s-5.2-1.9-5.2-4.2S1355.9,673.4,1358.8,673.4
		 M1358.8,671.4c-4,0-7.2,2.8-7.2,6.2c0,3.4,3.2,6.2,7.2,6.2c4,0,7.2-2.8,7.2-6.2C1366,674.2,1362.8,671.4,1358.8,671.4
		L1358.8,671.4z"/>
</g>
<g class="st0">
	<path class="st1" d="M1358.8,767c-3.4,0-6.2-2.3-6.2-5.2s2.8-5.2,6.2-5.2s6.2,2.3,6.2,5.2S1362.2,767,1358.8,767z"/>
	<path class="st2" d="M1358.8,757.5c2.9,0,5.2,1.9,5.2,4.2s-2.3,4.2-5.2,4.2s-5.2-1.9-5.2-4.2S1355.9,757.5,1358.8,757.5
		 M1358.8,755.5c-4,0-7.2,2.8-7.2,6.2c0,3.4,3.2,6.2,7.2,6.2c4,0,7.2-2.8,7.2-6.2C1366,758.3,1362.8,755.5,1358.8,755.5
		L1358.8,755.5z"/>
</g>
<g class="st0">
	<ellipse class="st1" cx="1358.8" cy="4.2" rx="6.2" ry="5.2"/>
	<path class="st2" d="M1358.8,0c2.9,0,5.2,1.9,5.2,4.2s-2.3,4.2-5.2,4.2s-5.2-1.9-5.2-4.2S1355.9,0,1358.8,0 M1358.8-2
		c-4,0-7.2,2.8-7.2,6.2s3.2,6.2,7.2,6.2c4,0,7.2-2.8,7.2-6.2S1362.8-2,1358.8-2L1358.8-2z"/>
</g>
<line class="st3" x1="1189.9" y1="88.4" x2="1358.8" y2="88.4"/>
<line class="st3" x1="1189.9" y1="172.6" x2="1358.8" y2="172.6"/>
<line class="st3" x1="1188.1" y1="256.7" x2="1357" y2="256.7"/>
<line class="st3" x1="1189.9" y1="339.4" x2="1358.8" y2="339.4"/>
<line class="st3" x1="1189.9" y1="425.1" x2="1358.8" y2="425.1"/>
<line class="st3" x1="1189.9" y1="509.3" x2="1358.8" y2="509.3"/>
<line class="st3" x1="1189.9" y1="593.4" x2="1358.8" y2="593.4"/>
<line class="st3" x1="1189.9" y1="677.6" x2="1358.8" y2="677.6"/>
<line class="st3" x1="1189.9" y1="761.8" x2="1358.8" y2="761.8"/>
</svg>
